<?xml version="1.0" encoding="utf-8"?>
<!-- Generator: Adobe Illustrator 24.1.2, SVG Export Plug-In . SVG Version: 6.00 Build 0)  -->
<svg version="1.1" id="Capa_1" xmlns="http://www.w3.org/2000/svg" xmlns:xlink="http://www.w3.org/1999/xlink" x="0px" y="0px"
	 viewBox="0 0 62.8 62.8" style="enable-background:new 0 0 62.8 62.8;" xml:space="preserve">
<style type="text/css">
	.st0{fill:#A5A5A5;}
	.st1{fill:#E8E3DF;}
	.st2{fill:none;}
	.st3{filter:url(#Adobe_OpacityMaskFilter);}
	.st4{mask:url(#SVGID_1_);}
	.st5{clip-path:url(#SVGID_3_);fill:#FF9D33;}
	.st6{clip-path:url(#SVGID_3_);fill:#FFCE31;}
	.st7{clip-path:url(#SVGID_3_);fill:#FFDF85;}
	.st8{filter:url(#Adobe_OpacityMaskFilter_1_);}
	.st9{mask:url(#SVGID_4_);}
	.st10{filter:url(#Adobe_OpacityMaskFilter_2_);}
	.st11{mask:url(#SVGID_11_);}
	.st12{clip-path:url(#SVGID_13_);}
	.st13{filter:url(#Adobe_OpacityMaskFilter_3_);}
	.st14{mask:url(#SVGID_14_);}
	.st15{clip-path:url(#SVGID_16_);fill:#3A3A3A;}
	.st16{opacity:0.5;}
	.st17{fill:#191513;}
	.st18{fill:#F8F7FA;}
	.st19{opacity:0.21;fill:#A6A6AA;}
	.st20{fill:#846046;}
	.st21{fill:#7F4437;}
	.st22{fill:#FFFFFF;}
	.st23{clip-path:url(#SVGID_22_);}
	.st24{clip-path:url(#SVGID_26_);}
	.st25{fill-rule:evenodd;clip-rule:evenodd;fill:none;}
	.st26{fill:#3A3A3A;}
	.st27{clip-path:url(#SVGID_30_);}
	.st28{opacity:0.6;}
	.st29{fill:#231B18;}
	.st30{opacity:0.3;fill:#7F4437;}
	.st31{filter:url(#Adobe_OpacityMaskFilter_4_);}
	.st32{filter:url(#Adobe_OpacityMaskFilter_5_);}
	.st33{mask:url(#SVGID_37_);}
	.st34{clip-path:url(#SVGID_39_);}
	.st35{clip-path:url(#SVGID_43_);}
	.st36{clip-path:url(#SVGID_45_);}
	.st37{clip-path:url(#SVGID_49_);}
	.st38{clip-path:url(#SVGID_51_);}
	.st39{filter:url(#Adobe_OpacityMaskFilter_6_);}
	.st40{clip-path:url(#SVGID_49_);mask:url(#SVGID_54_);}
	.st41{clip-path:url(#SVGID_56_);fill:#846046;}
	.st42{clip-path:url(#SVGID_56_);fill:#F8F7FA;}
	.st43{clip-path:url(#SVGID_56_);fill:#FFFFFF;}
	.st44{clip-path:url(#SVGID_49_);fill:#846046;}
	.st45{clip-path:url(#SVGID_49_);fill:#F8F7FA;}
	.st46{clip-path:url(#SVGID_58_);fill:#FFFFFF;}
	.st47{filter:url(#Adobe_OpacityMaskFilter_7_);}
	.st48{mask:url(#SVGID_59_);}
	.st49{clip-path:url(#SVGID_61_);fill:#FF9D33;}
	.st50{clip-path:url(#SVGID_61_);fill:#FFCE31;}
	.st51{clip-path:url(#SVGID_61_);fill:#FFDF85;}
	.st52{fill:#CBCBD4;}
	.st53{fill:#82212C;}
	.st54{filter:url(#Adobe_OpacityMaskFilter_8_);}
	.st55{mask:url(#SVGID_62_);}
	.st56{clip-path:url(#SVGID_64_);fill:#F8F7FA;}
	.st57{clip-path:url(#SVGID_64_);fill:#CBCBD4;}
	.st58{clip-path:url(#SVGID_64_);fill:#846046;}
	.st59{clip-path:url(#SVGID_64_);fill:#A6A6AA;}
	.st60{clip-path:url(#SVGID_66_);fill:#CBCBD4;}
	.st61{clip-path:url(#SVGID_68_);fill:#FFFFFF;}
	.st62{clip-path:url(#SVGID_70_);}
	.st63{filter:url(#Adobe_OpacityMaskFilter_9_);}
	.st64{mask:url(#SVGID_73_);}
	.st65{clip-path:url(#SVGID_75_);}
	.st66{clip-path:url(#SVGID_79_);}
	.st67{clip-path:url(#SVGID_81_);}
	.st68{clip-path:url(#SVGID_83_);}
	.st69{filter:url(#Adobe_OpacityMaskFilter_10_);}
	.st70{clip-path:url(#SVGID_81_);mask:url(#SVGID_86_);}
	.st71{clip-path:url(#SVGID_88_);fill:#846046;}
	.st72{clip-path:url(#SVGID_88_);fill:#F8F7FA;}
	.st73{clip-path:url(#SVGID_88_);fill:#FFFFFF;}
	.st74{clip-path:url(#SVGID_81_);fill:#846046;}
	.st75{clip-path:url(#SVGID_81_);fill:#F8F7FA;}
	.st76{clip-path:url(#SVGID_90_);}
	.st77{clip-path:url(#SVGID_94_);}
	.st78{clip-path:url(#SVGID_98_);}
	.st79{clip-path:url(#SVGID_100_);}
	.st80{clip-path:url(#SVGID_104_);fill:#846046;}
	.st81{clip-path:url(#SVGID_104_);fill:#FFFFFF;}
	.st82{clip-path:url(#SVGID_106_);fill:#FFFFFF;}
	.st83{filter:url(#Adobe_OpacityMaskFilter_11_);}
	.st84{mask:url(#SVGID_107_);}
	.st85{clip-path:url(#SVGID_109_);}
	.st86{filter:url(#Adobe_OpacityMaskFilter_12_);}
	.st87{mask:url(#SVGID_110_);}
	.st88{clip-path:url(#SVGID_112_);fill:#3A3A3A;}
	.st89{filter:url(#Adobe_OpacityMaskFilter_13_);}
	.st90{mask:url(#SVGID_113_);}
	.st91{clip-path:url(#SVGID_115_);fill:#FF9D33;}
	.st92{clip-path:url(#SVGID_115_);fill:#FFCE31;}
	.st93{clip-path:url(#SVGID_115_);fill:#FFDF85;}
	.st94{filter:url(#Adobe_OpacityMaskFilter_14_);}
	.st95{mask:url(#SVGID_116_);}
	.st96{filter:url(#Adobe_OpacityMaskFilter_15_);}
	.st97{mask:url(#SVGID_123_);}
	.st98{clip-path:url(#SVGID_125_);}
	.st99{filter:url(#Adobe_OpacityMaskFilter_16_);}
	.st100{mask:url(#SVGID_126_);}
	.st101{clip-path:url(#SVGID_128_);fill:#3A3A3A;}
	.st102{fill:#B7B7B7;}
	.st103{filter:url(#Adobe_OpacityMaskFilter_17_);}
	.st104{mask:url(#SVGID_131_);}
	.st105{clip-path:url(#SVGID_133_);fill:#FF9D33;}
	.st106{clip-path:url(#SVGID_133_);fill:#FFCE31;}
	.st107{clip-path:url(#SVGID_133_);fill:#FFDF85;}
	.st108{filter:url(#Adobe_OpacityMaskFilter_18_);}
	.st109{mask:url(#SVGID_134_);}
	.st110{filter:url(#Adobe_OpacityMaskFilter_19_);}
	.st111{mask:url(#SVGID_141_);}
	.st112{clip-path:url(#SVGID_143_);}
	.st113{filter:url(#Adobe_OpacityMaskFilter_20_);}
	.st114{mask:url(#SVGID_144_);}
	.st115{clip-path:url(#SVGID_146_);fill:#3A3A3A;}
	.st116{filter:url(#Adobe_OpacityMaskFilter_21_);}
	.st117{mask:url(#SVGID_147_);}
	.st118{clip-path:url(#SVGID_149_);fill:#FF9D33;}
	.st119{clip-path:url(#SVGID_149_);fill:#FFCE31;}
	.st120{clip-path:url(#SVGID_149_);fill:#FFDF85;}
	.st121{filter:url(#Adobe_OpacityMaskFilter_22_);}
	.st122{mask:url(#SVGID_150_);}
	.st123{filter:url(#Adobe_OpacityMaskFilter_23_);}
	.st124{mask:url(#SVGID_157_);}
	.st125{clip-path:url(#SVGID_159_);}
	.st126{filter:url(#Adobe_OpacityMaskFilter_24_);}
	.st127{mask:url(#SVGID_160_);}
	.st128{clip-path:url(#SVGID_162_);fill:#3A3A3A;}
	.st129{fill:none;stroke:#231B18;stroke-width:0.75;stroke-miterlimit:10;}
	.st130{filter:url(#Adobe_OpacityMaskFilter_25_);}
	.st131{mask:url(#SVGID_165_);}
	.st132{clip-path:url(#SVGID_167_);fill:#FF9D33;}
	.st133{clip-path:url(#SVGID_167_);fill:#FFCE31;}
	.st134{clip-path:url(#SVGID_167_);fill:#FFDF85;}
	.st135{filter:url(#Adobe_OpacityMaskFilter_26_);}
	.st136{mask:url(#SVGID_168_);}
	.st137{filter:url(#Adobe_OpacityMaskFilter_27_);}
	.st138{mask:url(#SVGID_175_);}
	.st139{clip-path:url(#SVGID_177_);}
	.st140{filter:url(#Adobe_OpacityMaskFilter_28_);}
	.st141{mask:url(#SVGID_178_);}
	.st142{clip-path:url(#SVGID_180_);fill:#3A3A3A;}
	.st143{filter:url(#Adobe_OpacityMaskFilter_29_);}
	.st144{mask:url(#SVGID_183_);}
	.st145{clip-path:url(#SVGID_185_);fill:#FF9D33;}
	.st146{clip-path:url(#SVGID_185_);fill:#FFCE31;}
	.st147{clip-path:url(#SVGID_185_);fill:#FFDF85;}
	.st148{filter:url(#Adobe_OpacityMaskFilter_30_);}
	.st149{mask:url(#SVGID_186_);}
	.st150{filter:url(#Adobe_OpacityMaskFilter_31_);}
	.st151{mask:url(#SVGID_193_);}
	.st152{clip-path:url(#SVGID_195_);}
	.st153{filter:url(#Adobe_OpacityMaskFilter_32_);}
	.st154{mask:url(#SVGID_196_);}
	.st155{clip-path:url(#SVGID_198_);fill:#3A3A3A;}
	.st156{clip-path:url(#SVGID_202_);}
	.st157{clip-path:url(#SVGID_202_);fill:none;}
	.st158{opacity:0.21;clip-path:url(#SVGID_202_);fill:#A6A6AA;}
	.st159{clip-path:url(#SVGID_202_);fill:#7F4437;}
	.st160{clip-path:url(#SVGID_202_);fill:#E8E3DF;}
	.st161{clip-path:url(#SVGID_206_);}
	.st162{fill:#070707;}
	.st163{fill:none;stroke:#7F4437;stroke-miterlimit:10;}
	.st164{fill:none;stroke:#000000;stroke-miterlimit:10;}
	.st165{filter:url(#Adobe_OpacityMaskFilter_33_);}
	.st166{mask:url(#SVGID_213_);}
	.st167{clip-path:url(#SVGID_215_);fill:#FF9D33;}
	.st168{clip-path:url(#SVGID_215_);fill:#FFCE31;}
	.st169{clip-path:url(#SVGID_215_);fill:#FFDF85;}
	.st170{filter:url(#Adobe_OpacityMaskFilter_34_);}
	.st171{mask:url(#SVGID_216_);}
	.st172{filter:url(#Adobe_OpacityMaskFilter_35_);}
	.st173{mask:url(#SVGID_223_);}
	.st174{clip-path:url(#SVGID_225_);}
	.st175{filter:url(#Adobe_OpacityMaskFilter_36_);}
	.st176{mask:url(#SVGID_226_);}
	.st177{clip-path:url(#SVGID_228_);fill:#3A3A3A;}
	.st178{clip-path:url(#SVGID_232_);}
	.st179{clip-path:url(#SVGID_232_);fill:none;}
	.st180{opacity:0.21;clip-path:url(#SVGID_232_);fill:#A6A6AA;}
	.st181{clip-path:url(#SVGID_232_);fill:#7F4437;}
	.st182{clip-path:url(#SVGID_232_);fill:#E8E3DF;}
	.st183{filter:url(#Adobe_OpacityMaskFilter_37_);}
	.st184{mask:url(#SVGID_235_);}
	.st185{clip-path:url(#SVGID_237_);fill:#FF9D33;}
	.st186{clip-path:url(#SVGID_237_);fill:#FFCE31;}
	.st187{clip-path:url(#SVGID_237_);fill:#FFDF85;}
	.st188{filter:url(#Adobe_OpacityMaskFilter_38_);}
	.st189{mask:url(#SVGID_238_);}
	.st190{filter:url(#Adobe_OpacityMaskFilter_39_);}
	.st191{mask:url(#SVGID_245_);}
	.st192{clip-path:url(#SVGID_247_);}
	.st193{filter:url(#Adobe_OpacityMaskFilter_40_);}
	.st194{mask:url(#SVGID_248_);}
	.st195{clip-path:url(#SVGID_250_);fill:#3A3A3A;}
</style>
<g>
	<defs>
		<rect id="SVGID_129_" x="128.2" y="85.7" width="342.3" height="255"/>
	</defs>
	<clipPath id="SVGID_1_">
		<use xlink:href="#SVGID_129_"  style="overflow:visible;"/>
	</clipPath>
	<g transform="matrix(1 0 0 1 0 -1.907349e-06)" style="clip-path:url(#SVGID_1_);">
		
			<image style="overflow:visible;" width="1080" height="720" xlink:href="E15DBCAF.jpg"  transform="matrix(0.5242 0 0 0.5242 -81.5542 24.4323)">
		</image>
	</g>
</g>
<g>
	<path class="st29" d="M31.4,62.8C14,62.8,0,48.7,0,31.4C0,14,14.1-0.1,31.5,0c17.4,0.1,31.3,14.1,31.3,31.5
		C62.8,48.8,48.6,62.8,31.4,62.8z M31.4,1.4C14.9,1.4,1.5,14.9,1.4,31.3c-0.1,16.4,13.4,30,29.9,30c16.5,0,30-13.5,30-29.9
		C61.3,14.9,47.8,1.4,31.4,1.4z"/>
	<path class="st29" d="M31.4,59.2C16.1,59.2,3.4,46.5,3.7,31C3.9,15.7,16.5,3.3,32.1,3.6c15.1,0.3,27.5,12.9,27.2,28.5
		C58.9,47.1,46.5,59.3,31.4,59.2z M20.4,26.4c-1.2-1.5-1.2-4-0.1-5.9c0.9-1.5,1.9-1.9,3.6-1.6c0.2,0,0.5-0.2,0.8-0.2
		c-0.2-0.2-0.3-0.6-0.5-0.7c-2.6-1.2-5.3-0.5-6.3,2.5c-0.7,2.2-0.5,4.4,0.9,6.2c1,1.3,0.8,2.4,0.3,3.7c-0.2,0.4-0.3,0.8-0.5,1.2
		c-1,2.2-2.1,4.4-3.8,6.2c-0.5,0.5-0.9,0.6-1.6,0.3c-1.3-0.4-2.6-0.7-3.9-0.8C7.9,37,7.1,37.8,7,38.9c0,1.1,0.8,2,2.1,2.1
		c0.8,0,1.7,0,2.4-0.3c1-0.3,1.8-0.1,2.6,0.4c2.5,1.7,5.3,2.8,8.4,3.1c3.1,0.3,6-0.2,8.3-2.4c1.3-1.3,2.7-2.8,3.6-4.4
		c2.1-3.8,4-7.7,6-11.6c0.8-1.5,1.6-2.9,2.5-4.2c0.6-0.9,1.4-1.5,2.6-1.4c1.2,0.2,1.7,1.1,2.1,2.1c0.5,1.5,0.4,3,0,4.5
		c-0.1,0.6-0.5,0.5-1,0.6c-0.9,0-1.9,0.1-2.7,0.3c-1,0.3-1.3,0.9-1.2,1.7c0.2,0.9,0.9,1.6,1.8,1.4c1-0.2,2.1-0.6,3-1
		c0.5-0.2,0.8-0.3,1.3,0c2.5,1.4,3.7,4,3,6.8c-0.7,2.8-2,5.2-4.6,6.7c-2.2,1.3-5,1-6.6-0.6c-0.8-0.9-1.1-2.5-0.6-3.5
		c0.2-0.4,0.4-0.8,1-0.5c0.9,0.5,1.5,0.3,2-0.6c0.4-0.8,0.1-1.6-0.7-2.1c-0.9-0.5-1.9-0.4-2.6,0.3c-1.9,1.7-2.1,5-0.3,6.9
		c1.7,1.7,3.8,2.6,6.3,2.2c3.8-0.6,7.3-4,8.1-8.1c0.6-3,0.1-5.7-2.3-7.8c-0.7-0.6-1.6-1.1-2.4-1.7c0.1-0.3,0.2-0.6,0.3-1
		c0.8-1.9,0.6-3.8-0.3-5.6c-1.5-3-4.4-3.5-6.8-1.1c-0.9,0.9-1.8,1.9-2.4,3.1c-2.8,4.9-5.5,9.9-8.2,14.8c-0.6,1.1-1.2,2.1-2,3
		c-1.1,1.4-2.7,2.1-4.5,2c-3.8-0.2-6.8-2.3-10.2-3.9c3-2.7,5.3-5.7,6.5-9.4c0.7,0.3,1.3,0.5,1.9,0.7c0.7,0.2,1.3,0.3,2,0.4
		c4.8,0.4,8.2-2.6,8.1-7.2c-0.1-2.6-1.7-4.6-4.3-4.9c-2.5-0.3-4.5,0.8-6.2,2.6C21.8,22.6,21,24.4,20.4,26.4z"/>
	<path class="st29" d="M25.4,29.4c-0.9-0.2-1.7-0.4-2.6-0.6c-0.6-0.1-0.8-0.6-0.6-1.1c0.7-2.7,1.9-5.2,4.2-6.9
		c1.4-1.1,2.7-1.1,4.1-0.2c1.3,0.9,1.8,2.3,1.4,4C31,27.4,28.5,29.2,25.4,29.4z"/>
	<path class="st29" d="M11.3,39.7c-0.9,0.3-1.7,0.5-2.6,0.1c-0.2-0.1-0.4-0.5-0.5-0.7C8.5,39,8.8,38.7,9,38.8
		c0.8,0.2,1.6,0.4,2.4,0.7C11.4,39.5,11.4,39.6,11.3,39.7z"/>
	<path class="st29" d="M46.7,29c-0.6,0.6-1.3,0.9-2.2,0.9c-0.2,0-0.4-0.2-0.4-0.3c0-0.2,0.2-0.5,0.3-0.5c0.7-0.2,1.5-0.2,2.3-0.3
		C46.6,28.9,46.6,28.9,46.7,29z"/>
</g>
</svg>
