<svg xmlns="http://www.w3.org/2000/svg" viewBox="0 0 79.91 80.29"><g id="Layer_1" data-name="Layer 1"><path d="M0,80.29c.23-.83.44-1.62.65-2.4q2.46-9,4.91-17.92a.61.61,0,0,0-.06-.54A39.79,39.79,0,0,1,19.81,5.59,39.11,39.11,0,0,1,35.16.31,39.73,39.73,0,0,1,75.92,22.39a39.29,39.29,0,0,1,4,19A39.82,39.82,0,0,1,49,78.59a39.21,39.21,0,0,1-27.65-3.67.79.79,0,0,0-.62-.07L.28,80.23Zm9.55-9.45.31-.08q5.87-1.53,11.72-3.08a.93.93,0,0,1,.91.13,6,6,0,0,0,.64.38A32.58,32.58,0,0,0,48.49,71.8,33.08,33.08,0,1,0,8.7,50.14a34.4,34.4,0,0,0,4,8.26.52.52,0,0,1,.08.51Q11.5,63.7,10.2,68.48Z" fill="#fff"/><path d="M9.55,70.84l.65-2.36q1.31-4.78,2.62-9.57a.52.52,0,0,0-.08-.51,34.4,34.4,0,0,1-4-8.26A33.08,33.08,0,1,1,48.49,71.8a32.58,32.58,0,0,1-25.36-3.61,6,6,0,0,1-.64-.38.93.93,0,0,0-.91-.13q-5.85,1.56-11.72,3.08Zm17.6-49.39v0c-.32,0-.64,0-.95,0a3.62,3.62,0,0,0-2.72,1.14c-.29.3-.58.62-.86.94a11,11,0,0,0-2.55,9.33,16.38,16.38,0,0,0,2.22,5.85,50.16,50.16,0,0,0,6.15,8.2,40.5,40.5,0,0,0,9.28,7.73,43.44,43.44,0,0,0,8.2,3.53,13.65,13.65,0,0,0,6.79.62,11,11,0,0,0,5.64-3,4.47,4.47,0,0,0,1.2-1.68,13.37,13.37,0,0,0,.77-3.6,1.77,1.77,0,0,0-1.16-2c-2.11-1-4.18-2-6.28-3a18.09,18.09,0,0,0-2-.79,1.3,1.3,0,0,0-1.63.56q-1.57,2-3.19,4a1.33,1.33,0,0,1-1.82.44c-1.35-.61-2.72-1.21-4-1.94a26.79,26.79,0,0,1-9.67-9.68c-.69-1.14-.62-1.47.28-2.45A16.44,16.44,0,0,0,33,33a2.75,2.75,0,0,0,.13-2.85c-1-2.27-1.93-4.61-2.9-6.91A6.79,6.79,0,0,0,29.53,22a1.35,1.35,0,0,0-1.17-.58Z" fill="#39b54a"/><path d="M27.15,21.45h1.21a1.35,1.35,0,0,1,1.17.58,6.79,6.79,0,0,1,.67,1.21c1,2.3,1.87,4.64,2.9,6.91A2.75,2.75,0,0,1,33,33a16.44,16.44,0,0,1-2.08,2.61c-.9,1-1,1.31-.28,2.45a26.79,26.79,0,0,0,9.67,9.68c1.29.73,2.66,1.33,4,1.94a1.33,1.33,0,0,0,1.82-.44q1.62-2,3.19-4a1.3,1.3,0,0,1,1.63-.56,18.09,18.09,0,0,1,2,.79c2.1,1,4.17,2.06,6.28,3a1.77,1.77,0,0,1,1.16,2,13.37,13.37,0,0,1-.77,3.6,4.47,4.47,0,0,1-1.2,1.68,11,11,0,0,1-5.64,3,13.65,13.65,0,0,1-6.79-.62,43.44,43.44,0,0,1-8.2-3.53,40.5,40.5,0,0,1-9.28-7.73,50.16,50.16,0,0,1-6.15-8.2,16.38,16.38,0,0,1-2.22-5.85,11,11,0,0,1,2.55-9.33c.28-.32.57-.64.86-.94a3.62,3.62,0,0,1,2.72-1.14c.31,0,.63,0,.95,0Z" fill="#fff"/></g></svg>