<?xml version="1.0" encoding="utf-8"?>
<!-- Generator: Adobe Illustrator 24.1.2, SVG Export Plug-In . SVG Version: 6.00 Build 0)  -->
<svg version="1.1" id="Capa_1" xmlns="http://www.w3.org/2000/svg" xmlns:xlink="http://www.w3.org/1999/xlink" x="0px" y="0px"
	 viewBox="0 0 595.3 595.3" enable-background="new 0 0 595.3 595.3" xml:space="preserve">
<g>
	<g>
		<path fill="#EEE7D2" d="M0,310.1c0-8.3,0-16.7,0-25c0.1-0.1,0.2-0.1,0.2-0.2c0-0.1-0.1-0.2-0.2-0.4c0-2,0-4,0-6
			c0.4-0.4,1-0.9,1-1.3c0.4-3.8,0.7-7.5,1.1-11.3c0.8-6.4,1.2-12.9,2.5-19.2c2.2-11,4.5-22,7.6-32.9c2.5-9,5.9-17.7,9.2-26.4
			c1.9-5,4.4-9.8,6.6-14.7c2.4-5.2,4.5-10.6,7.4-15.5c6.9-11.5,13.6-23.1,21.5-33.9c7.7-10.7,16.6-20.6,25.3-30.4
			c5.4-6,11.5-11.3,17.3-16.9c2-1.9,3.9-3.8,6-5.4c8.5-6.4,16.8-13,25.6-19c7.5-5.1,15.4-9.7,23.2-14.3c3.2-1.9,6.7-3.4,10.1-5
			c5.4-2.6,10.7-5.5,16.2-7.8c6.2-2.6,12.5-4.8,18.9-6.9c6.5-2.2,12.9-4.4,19.5-6.2c6.5-1.8,13.1-3.3,19.7-4.6
			c7.9-1.6,15.9-3,23.9-4.1c5.4-0.7,11-0.6,16.4-1.2c9.2-1,18.3-1.4,27.5-0.5c11,1,22.1,1.7,33.1,2.8c6.9,0.7,13.7,2,20.5,3.4
			c5.2,1.1,10.3,2.6,15.3,4.1c8,2.3,16.1,4.4,23.8,7.3c9.3,3.6,18.4,7.8,27.5,12c6.3,2.9,12.6,5.9,18.5,9.5
			c8.7,5.2,17.2,10.9,25.6,16.6c11,7.6,21.4,16,30.8,25.5c9.5,9.6,18.7,19.6,27.6,29.8c5.3,6.1,9.9,12.8,14.4,19.6
			c5,7.5,9.6,15.3,14.2,23.1c2.4,4,4.7,8.1,6.7,12.3c2,4.1,3.7,8.4,5.3,12.6c4,10.1,8.3,20.1,11.6,30.4c3.1,9.8,5.2,20,7.3,30.1
			c1.7,8.1,3.3,16.2,4.1,24.5c1,10.6,1.4,21.2,1.7,31.9c0.2,7.2-0.2,14.4-0.5,21.7c-0.2,4.6-0.6,9.2-1.2,13.7
			c-0.9,6.7-1.8,13.4-3.1,20c-1.7,8.6-3.5,17.3-5.8,25.7c-2.3,8.2-5.3,16.3-8.2,24.3c-2.3,6.3-4.5,12.8-7.4,18.8
			c-4.5,9.3-9.5,18.3-14.5,27.4c-5.6,10.1-12.1,19.7-19.2,28.9c-3.8,4.8-7.4,9.8-11.4,14.4c-6.5,7.3-13.1,14.6-20,21.5
			c-4.6,4.6-9.7,8.8-14.8,12.9c-7.5,6-15,12-22.9,17.5c-5.5,3.9-11.3,7.3-17.2,10.6c-8.2,4.6-16.4,9.4-24.9,13.3
			c-9.4,4.4-19,8.1-28.7,11.7c-7.3,2.7-14.8,5-22.3,7c-6.3,1.7-12.8,3-19.3,4.1c-8.4,1.4-16.9,2.6-25.4,3.6
			c-5.3,0.6-10.6,0.8-15.9,1.2c-0.4,0-0.8,0.3-1.2,0.5c-8.7,0-17.4,0-26.1,0c-0.8-0.2-1.5-0.4-2.3-0.5c-9.1-0.8-18.2-1-27.1-2.4
			c-10.9-1.7-21.8-3.9-32.4-6.7c-10.6-2.7-21.1-6-31.3-9.8c-9.5-3.6-18.6-8.1-27.7-12.5c-7.2-3.5-14.3-7.2-21.1-11.4
			c-7.3-4.5-14.2-9.8-21.3-14.6c-12.4-8.4-23.3-18.6-33.9-29c-7.5-7.4-14.5-15.2-20.9-23.5c-8.3-10.8-16.2-22-23.6-33.5
			c-4.8-7.3-8.6-15.3-12.6-23.1c-1.7-3.3-3-6.8-4.5-10.3c-2.7-6.4-5.8-12.6-8.1-19.1c-2.7-7.6-4.8-15.4-6.9-23.2
			c-1.9-7.2-3.8-14.4-5.2-21.7c-2.4-12-4-24.2-4.5-36.4c0-0.6-0.7-1.3-1-1.9c0-1.6,0-3.3,0-4.9c0.1-0.1,0.2-0.1,0.2-0.2
			C0.1,310.4,0.1,310.2,0,310.1z M285.7,50.5c-2.5,0.3-2.5,2.1-1.9,3.8c0.7,2.2,3.7,3.2,6.2,2.2c2.7-1.1,3.3-0.7,3.3,2.3
			c0,6.3,0,12.7,0,19c0,1.8-0.9,4.2,3.1,3.5c3.3-0.6,3.4,0.1,3.4-3.5c0-6.1,0.1-12.3-0.1-18.4c-0.1-2.5,0.6-3.6,3.3-3.4
			c1.8,0.1,3.6-0.4,5.5-0.6c0-1.4,0-2.8,0-4.2c-0.8-0.2-1.7-0.6-2.5-0.6C299.2,50.5,292.5,50.5,285.7,50.5z M241.5,186.2
			c-0.1-0.3-0.1-0.7-0.2-1c-0.5-0.2-0.9-0.4-1.4-0.6c-12.8-3.4-24.3-0.4-34.8,7.2c-4.2,3-7.6,6.8-9.4,11.7
			c-3.6,9.7-4.1,19.6,0.2,29.1c2.9,6.4,6.7,12.3,10.4,18.3c1.3,2.1,1.5,3.7,0.4,5.9c-5.1,10.2-10,20.4-14.9,30.7
			c-8.2,17-18.2,32.7-32.5,45.3c-1.3,1.2-2.4,1.7-4.1,0.8c-3.7-2-7.4-4.1-11.2-6c-4.2-2.2-8.4-4.8-12.9-6.2
			c-11.1-3.6-22.4,1.7-25.9,11.7c-2.6,7.4,0.7,14.3,8.3,16c4.4,1,9.2,1.3,13.7,0.8c6-0.7,11.9-2.3,17.7-3.8c4.2-1.1,7.6-0.7,11,2.6
			c9.9,9.6,21.3,16.9,33.9,22.5c21.1,9.4,42.6,12.1,64.9,4.6c18.8-6.3,33.5-18.2,46-33.2c12.1-14.6,21.3-31.1,30.2-47.8
			c10.1-18.8,20-37.7,30.4-56.2c5.4-9.6,11.5-18.9,19.9-26.3c9.4-8.2,20.2-13.2,33.1-12.5c9.3,0.5,16.4,6.7,17.6,15.8
			c0.5,4,0.5,8.1-0.1,12.1c-1,7.9-2.9,15.6-7.2,22.5c-0.5,0.9-1.9,1.6-2.9,1.7c-3.3,0.4-6.7,0.3-10,0.6c-6.4,0.6-12.8,1.4-18.5,4.7
			c-4.1,2.4-6.7,5.8-6.3,10.8c0.1,0.9,0.7,2,1.5,2.5c3.3,2.1,7,2.7,10.9,2.4c7-0.6,13.2-3.6,19.4-6.5c3.3-1.5,6.6-1.9,9.9-0.5
			c2.5,1.1,5.2,2.3,7.3,3.9c11.5,9,17.2,21.2,18.2,35.6c1.2,16.9-4.9,31.5-14.9,44.8c-15.2,20.3-35.5,27.4-60,21.1
			c-3.2-0.8-6.4-2-9.4-3.4c-13.5-6.4-18.4-17.1-14.7-31.7c1.2-4.8,3-9.4,7.1-12.7c1.6,1.2,2.9,2.3,4.3,3.2c1.5,0.9,3.1,1.8,4.8,2.4
			c4.5,1.6,8.1-0.3,9.5-4.9c1.4-4.4-1.4-9.2-6.7-11.5c-8.4-3.6-17.3,0.2-21.5,9.2c-3.4,7.2-3.8,14.8-3.4,22.5
			c0.5,11,5.5,19.4,15.1,24.7c23.2,13,47.1,13.3,71,2.4c17.4-7.9,30.2-20.6,36.4-39.1c3.4-10.2,3.8-20.8,2.6-31.4
			c-1.5-13.2-6.5-24.7-16.3-33.9c-6.3-5.9-13.8-9.7-22.3-12.4c1-1.8,1.7-3.6,2.8-5.1c5.7-7.9,7.3-16.8,6.4-26.3
			c-1-10.9-6-19.3-16-24.1c-10.9-5.2-22.1-4.5-33.3-0.9c-11.3,3.7-20.2,11.1-28.7,19c-14.1,13.1-24.6,28.9-32.8,46.2
			c-8.3,17.3-15.8,35-24,52.4c-6.6,14.1-14.4,27.6-26.1,38.3c-19.6,17.9-42.2,24.3-67.6,14.7c-18.1-6.9-34.5-17.4-50.3-28.5
			c-0.9-0.7-1.9-1.3-3.3-2.1c11.5-5.7,20.2-13.2,28-21.7c8.8-9.7,16.2-20.4,22.8-31.7c3.6-6.1,7-12.4,10.6-18.6
			c1,0.5,1.9,0.9,2.8,1.4c12.9,6.4,26.3,10,40.8,8.1c19.4-2.5,34.1-12.3,43.4-29.6c3.8-7.2,5.5-14.9,4.2-23.1
			c-1.9-11.6-8.9-19.5-19.1-24.5c-16-7.9-31.3-5.1-45.6,4.5c-10.6,7.1-19.7,15.9-27.4,26.1c-4.3,5.7-8,11.9-12.3,18.3
			c-1.3-2.5-2.9-5-3.9-7.7c-2.6-7.3-2.8-14.9-2.3-22.5c0.7-10.4,5.4-18.3,14.2-23.9c5.4-3.4,11.6-4.4,17.7-5.7
			C238.3,187.5,239.9,186.8,241.5,186.2z M54,298.8c-0.8,70.5,33.7,157.8,120.3,208c81.3,47,183.7,42.1,259.4-13.5
			c65.4-48,97.8-113.6,100.1-194.4c-2,0-3.4,0-4.7,0c-1,62.6-22.1,117.1-65.4,162.3c-43.3,45.2-96.6,69.8-159.2,72.5
			c-66.7,2.9-124.9-18.7-173.3-64.8c-48.3-46.1-71.9-103.3-73.2-170.1C56.8,298.8,55.5,298.8,54,298.8z M164.4,103.3
			c0.1-1.3,0.7-2.9,0.4-4.4c-0.8-4.9-5.8-7.3-10.5-4.7c-4.6,2.5-8.9,5.8-13.4,8.8c5.8,8.2,11.3,16.1,16.8,23.9
			c0.4-0.1,0.6-0.1,0.7-0.2c2.5-1.8,5.1-3.4,7.5-5.3c2.3-1.8,4.8-3.6,6.6-5.9c2.8-3.6,1.7-8.6-2.3-10.7
			C168.6,103.7,166.4,103.7,164.4,103.3z M91.1,154.9c7.8,6.1,15.4,12,23.2,18.1c1.7-2.2,3.4-4.2,4.9-6.3c1.8-2.5,3.9-5,5.3-7.8
			c2.3-4.7,0.4-9.4-4.2-10.7c-2.1-0.6-4.4-0.1-6.7-0.1c0.4-3-0.9-5.7-4.3-7.3c-2.8-1.3-6.1-0.5-8.7,2.5
			C97.2,146.9,94.3,150.9,91.1,154.9z M255,83.7c8.9,0,16-6.6,16-14.9c0-8.2-6.6-14.7-15.1-14.8c-8.9-0.1-16,6.5-16,14.9
			C239.9,77.2,246.5,83.6,255,83.7z M332.2,58.4c5.3,0.8,10.5,1.6,15.8,2.5c0.2-1.7,0.4-3,0.6-4.4c-6.9-1.1-13.7-2.2-20.6-3.4
			c-1.6,9.8-3.2,19.3-4.7,29c7.1,1.2,14,2.3,21.2,3.5c0.2-1.7,0.4-3,0.6-4.4c-5.5-0.9-10.6-1.8-16.1-2.7c0.4-2.7,0.8-5.2,1.2-7.9
			c4.9,0.8,9.5,1.5,14.1,2.3c0.3-1.6,0.5-2.9,0.7-4.3c-4.8-0.8-9.4-1.6-14.1-2.4C331.3,63.5,331.7,61.1,332.2,58.4z M534.1,236.6
			c-9.8,1.9-19.2,3.8-28.8,5.6c1.4,7.2,2.7,14,4.1,21.1c1.6-0.4,3-0.7,4.3-1c-1.1-5.5-2.1-10.8-3.1-16.1c2.7-0.5,5.2-1,7.9-1.4
			c1,4.8,1.8,9.3,2.8,14c1.5-0.3,2.8-0.6,4.3-0.9c-0.9-4.7-1.7-9.3-2.6-14c2.7-0.5,5.1-1,7.6-1.5c1.1,5.2,2.1,10.4,3.1,15.7
			c1.6-0.3,2.8-0.6,4.3-0.9C536.7,250.3,535.4,243.6,534.1,236.6z M419.7,85.8c-8.7,6.2-17.3,12.2-26.1,18.5c1.8,1,3.1,1.8,4.8,2.8
			c3.7-5.5,7.6-3.9,11.7-0.6c1,0.8,2.2,1.6,3.5,2.1c2.3,1,3,2.4,2.5,5c-0.8,4.5-0.6,4.5,3.9,6.2c0.1-0.3,0.2-0.7,0.3-1
			c1.1-8.8,2.3-17.5,3.4-26.3C424.2,88.2,424.1,88.2,419.7,85.8z M487.1,196.8c6-8.5,11.9-16.8,17.6-25.3c0.5-0.7-0.5-2.6-1.1-3.7
			c-0.4-0.6-1.5-1.2-2.2-1.2c-3.1,0.2-6.3,0.7-9.4,1.1c-6.9,0.9-13.8,1.8-20.7,2.7c2.2,4.4,2.2,4.4,6.7,3.8c0.3,0,0.6,0,0.8-0.1
			c1.7-0.6,2.6,0.2,3.4,1.7c1.6,2.9,3.2,5.6,5.1,8.3c1.2,1.7,1.1,2.8-0.2,4.5C484,192.5,484.1,192.6,487.1,196.8z M95.6,204.6
			c-9.9,0.5-19.7,1.1-29.6,1.5c-2.2,0.1-2.5,1.5-3.2,2.9c-0.7,1.5-0.3,2.4,0.8,3.5c6.7,6.5,13.3,13.1,19.9,19.6
			c0.4,0.4,0.9,0.7,1.4,1.1c1.9-4.5,1.9-4.5-1.3-7.6c-0.1-0.1-0.3-0.3-0.4-0.4c-1.3-1-1.6-2.1-0.9-3.7c1.3-2.9,2.4-5.8,3.3-8.9
			c0.7-2.3,1.8-3.1,4.2-3.1C94.6,209.7,94.6,209.6,95.6,204.6z M391.6,75.7c-3.6-8.1-13.2-11.6-21-7.9c-7.4,3.5-10.4,12.4-6.8,19.8
			c3.7,7.5,13.2,10.7,20.7,6.8c-0.5-1.3-1-2.5-1.5-3.8c-7.4,1.9-12.6-0.2-14.9-5.6c-2-4.7,0-10.4,4.5-12.9
			c5.3-2.9,10.3-1.1,15.4,5.6C389.2,77.1,390.5,76.4,391.6,75.7z M481.8,142.9c0.1-8.7-7.1-15.8-15.5-15.9c-8,0-14.7,6.7-14.7,14.7
			c-0.1,8.5,7.1,15.5,16.1,15.4c0-1.4,0-2.8,0-4.1c-7.6-1.5-11.3-5.5-10.9-11.6c0.3-5.1,4.4-9.2,9.4-9.5c6.3-0.3,10,3.3,11.6,11.5
			C479,143.2,480.3,143.1,481.8,142.9z M507,210.3c1.7,4.3,3.2,8.3,4.8,12.4c1.5-0.6,2.7-1.1,4-1.6c-1.6-4.3-3.1-8.3-4.7-12.4
			c2.6-1,5.1-2,7.8-3c1.8,4.7,3.6,9.2,5.3,13.7c1.5-0.6,2.7-1.1,4.1-1.6c-2.4-6.2-4.7-12.2-7-18.4c-9.2,3.6-18.2,7-27.3,10.5
			c0.6,1.6,1.1,3,1.7,4.6C499.5,213.2,503.1,211.8,507,210.3z M49.2,255.7c9.7,2.1,19,4.1,28.6,6.2c1.2-5.8,2.5-11.5,3.7-17.3
			c-1.6-0.3-2.9-0.6-4.4-0.9c-0.9,4.2-1.8,8.2-2.8,12.3c-8.2-1.8-16.1-3.5-24.2-5.2C49.9,252.5,49.6,253.9,49.2,255.7z M193.9,99.2
			c-4.1-7.3-8.1-14.4-12.2-21.6c-1.5,0.9-2.8,1.6-4.3,2.4c4.8,8.6,9.6,17,14.4,25.6c5.3-3,10.3-5.8,15.3-8.7
			c-0.8-1.4-1.4-2.5-2.2-3.9C201.3,95.1,197.8,97.1,193.9,99.2z M226.7,90.3c-2.8-9.4-5.6-18.7-8.5-28.1c-1.8,0.6-3.3,1-4.7,1.5
			c2.9,9.5,5.7,18.7,8.5,28C223.6,91.2,225,90.8,226.7,90.3z M120.4,121.5c6.7,7.2,13.3,14.3,20,21.4c1.3-1.2,2.4-2.3,3.6-3.4
			c-6.7-7.2-13.3-14.3-20-21.5C122.8,119.2,121.7,120.3,120.4,121.5z M538.9,243.7c0.2,4.1,2.1,6.5,5.7,7.7c0.3-1.6,0.6-3.2,0.8-4.7
			C543.3,245.7,541.2,244.8,538.9,243.7z"/>
		<!-- <path fill="#F7F6F6" d="M310.7,595.3c0.4-0.2,0.8-0.5,1.2-0.5c5.3-0.4,10.6-0.5,15.9-1.2c8.5-1,17-2.2,25.4-3.6
			c6.5-1.1,12.9-2.4,19.3-4.1c7.5-2,15-4.3,22.3-7c9.7-3.6,19.4-7.4,28.7-11.7c8.5-4,16.7-8.7,24.9-13.3c5.9-3.3,11.7-6.7,17.2-10.6
			c7.8-5.6,15.4-11.5,22.9-17.5c5.1-4.1,10.2-8.3,14.8-12.9c6.9-6.9,13.5-14.2,20-21.5c4-4.6,7.7-9.5,11.4-14.4
			c7.1-9.2,13.6-18.7,19.2-28.9c5-9,10-18.1,14.5-27.4c2.9-6.1,5.1-12.5,7.4-18.8c2.9-8,5.9-16.1,8.2-24.3
			c2.4-8.5,4.1-17.1,5.8-25.7c1.3-6.6,2.3-13.3,3.1-20c0.6-4.5,1-9.1,1.2-13.7c0.3-7.2,0.7-14.5,0.5-21.7
			c-0.3-10.6-0.7-21.3-1.7-31.9c-0.8-8.2-2.4-16.4-4.1-24.5c-2.1-10.1-4.2-20.3-7.3-30.1c-3.3-10.3-7.6-20.3-11.6-30.4
			c-1.7-4.3-3.4-8.5-5.3-12.6c-2-4.2-4.3-8.3-6.7-12.3c-4.6-7.8-9.2-15.6-14.2-23.1c-4.5-6.7-9.1-13.5-14.4-19.6
			c-8.9-10.2-18.1-20.2-27.6-29.8c-9.4-9.5-19.7-18-30.8-25.5c-8.4-5.7-16.9-11.4-25.6-16.6c-5.9-3.6-12.2-6.6-18.5-9.5
			c-9.1-4.2-18.2-8.5-27.5-12c-7.8-3-15.9-5-23.8-7.3c-5.1-1.5-10.2-3-15.3-4.1c-6.8-1.4-13.6-2.7-20.5-3.4
			c-11-1.2-22.1-1.8-33.1-2.8c-9.2-0.9-18.4-0.5-27.5,0.5c-5.5,0.6-11,0.5-16.4,1.2c-8,1.1-16,2.5-23.9,4.1
			c-6.6,1.3-13.2,2.8-19.7,4.6c-6.6,1.8-13,4-19.5,6.2c-6.3,2.2-12.7,4.3-18.9,6.9c-5.5,2.3-10.8,5.2-16.2,7.8
			c-3.4,1.6-6.9,3.1-10.1,5c-7.8,4.6-15.7,9.2-23.2,14.3c-8.8,6-17.1,12.6-25.6,19c-2.2,1.6-4.1,3.6-6,5.4
			C93.8,81.7,87.7,87,82.3,93c-8.8,9.9-17.6,19.8-25.3,30.4c-7.9,10.8-14.6,22.5-21.5,33.9c-2.9,4.9-5,10.3-7.4,15.5
			c-2.3,4.9-4.7,9.7-6.6,14.7c-3.3,8.7-6.7,17.4-9.2,26.4c-3,10.8-5.4,21.8-7.6,32.9c-1.3,6.3-1.7,12.8-2.5,19.2
			c-0.4,3.8-0.7,7.5-1.1,11.3c-0.1,0.5-0.7,0.9-1,1.3C0,185.8,0,92.9,0,0c198.4,0,396.8,0,595.3,0c0,198.4,0,396.8,0,595.3
			C500.4,595.3,405.6,595.3,310.7,595.3z"/>
		<path fill="#F7F6F6" d="M0,315.6c0.4,0.6,1,1.2,1,1.9c0.4,12.3,2.1,24.4,4.5,36.4c1.5,7.3,3.3,14.5,5.2,21.7
			c2.1,7.8,4.2,15.6,6.9,23.2c2.3,6.5,5.4,12.7,8.1,19.1c1.5,3.4,2.8,7,4.5,10.3c4.1,7.8,7.8,15.8,12.6,23.1
			c7.5,11.4,15.3,22.7,23.6,33.5c6.4,8.3,13.5,16.2,20.9,23.5c10.6,10.4,21.5,20.6,33.9,29c7.1,4.8,14,10.1,21.3,14.6
			c6.8,4.2,13.9,7.9,21.1,11.4c9.1,4.4,18.2,8.9,27.7,12.5c10.2,3.9,20.7,7.1,31.3,9.8c10.7,2.8,21.5,5,32.4,6.7
			c9,1.4,18.1,1.6,27.1,2.4c0.8,0.1,1.5,0.3,2.3,0.5c-94.9,0-189.8,0-284.6,0C0,502,0,408.8,0,315.6z"/>
		<path fill="#F7F6F6" d="M0,284.6c0.1,0.1,0.1,0.2,0.2,0.4c0,0-0.1,0.1-0.2,0.2C0,285,0,284.8,0,284.6z"/>
		<path fill="#F7F6F6" d="M0,310.1c0.1,0.1,0.1,0.2,0.2,0.4c0,0-0.1,0.1-0.2,0.2C0,310.5,0,310.3,0,310.1z"/> -->
		<path fill="#69181E" d="M241.5,186.2c-1.6,0.6-3.2,1.3-4.8,1.7c-6.1,1.4-12.2,2.3-17.7,5.7c-8.9,5.6-13.6,13.5-14.2,23.9
			c-0.5,7.6-0.3,15.2,2.3,22.5c1,2.7,2.6,5.2,3.9,7.7c4.3-6.4,8-12.6,12.3-18.3c7.7-10.2,16.8-19,27.4-26.1
			c14.3-9.6,29.6-12.4,45.6-4.5c10.1,5,17.2,12.9,19.1,24.5c1.3,8.1-0.4,15.9-4.2,23.1c-9.3,17.4-23.9,27.1-43.4,29.6
			c-14.5,1.9-28-1.8-40.8-8.1c-0.9-0.4-1.8-0.9-2.8-1.4c-3.6,6.3-7,12.5-10.6,18.6c-6.6,11.3-14,22-22.8,31.7
			c-7.8,8.6-16.5,16-28,21.7c1.4,0.9,2.4,1.5,3.3,2.1c15.9,11.1,32.2,21.6,50.3,28.5c25.4,9.7,47.9,3.2,67.6-14.7
			c11.7-10.7,19.5-24.2,26.1-38.3c8.2-17.4,15.7-35.1,24-52.4c8.2-17.2,18.7-33,32.8-46.2c8.5-7.9,17.4-15.3,28.7-19
			c11.2-3.7,22.4-4.4,33.3,0.9c10,4.8,15,13.2,16,24.1c0.9,9.5-0.8,18.4-6.4,26.3c-1.1,1.5-1.8,3.3-2.8,5.1
			c8.5,2.7,15.9,6.5,22.3,12.4c9.8,9.2,14.8,20.7,16.3,33.9c1.2,10.6,0.8,21.2-2.6,31.4c-6.2,18.5-19,31.2-36.4,39.1
			c-23.9,10.9-47.8,10.6-71-2.4c-9.6-5.3-14.6-13.7-15.1-24.7c-0.3-7.7,0-15.4,3.4-22.5c4.3-9,13.1-12.7,21.5-9.2
			c5.3,2.3,8.1,7,6.7,11.5c-1.4,4.5-5,6.4-9.5,4.9c-1.7-0.6-3.3-1.5-4.8-2.4c-1.5-0.9-2.8-2-4.3-3.2c-4,3.3-5.8,7.8-7.1,12.7
			c-3.7,14.6,1.2,25.3,14.7,31.7c3,1.4,6.2,2.6,9.4,3.4c24.6,6.2,44.8-0.8,60-21.1c9.9-13.2,16.1-27.9,14.9-44.8
			c-1-14.3-6.7-26.6-18.2-35.6c-2.2-1.7-4.8-2.8-7.3-3.9c-3.3-1.4-6.6-1.1-9.9,0.5c-6.2,2.9-12.4,5.8-19.4,6.5
			c-3.9,0.4-7.6-0.2-10.9-2.4c-0.7-0.5-1.4-1.6-1.5-2.5c-0.3-5,2.2-8.4,6.3-10.8c5.7-3.3,12.1-4,18.5-4.7c3.3-0.3,6.7-0.3,10-0.6
			c1-0.1,2.4-0.8,2.9-1.7c4.3-6.9,6.1-14.6,7.2-22.5c0.5-4,0.6-8.1,0.1-12.1c-1.2-9.1-8.3-15.2-17.6-15.8
			c-12.9-0.7-23.7,4.3-33.1,12.5c-8.4,7.3-14.5,16.7-19.9,26.3c-10.4,18.6-20.3,37.4-30.4,56.2c-8.9,16.7-18.1,33.2-30.2,47.8
			c-12.5,15-27.2,26.9-46,33.2c-22.3,7.5-43.8,4.8-64.9-4.6c-12.6-5.6-24-13-33.9-22.5c-3.4-3.3-6.8-3.7-11-2.6
			c-5.8,1.5-11.7,3.1-17.7,3.8c-4.5,0.5-9.3,0.2-13.7-0.8c-7.6-1.8-10.8-8.6-8.3-16c3.5-10,14.7-15.3,25.9-11.7
			c4.5,1.4,8.6,4,12.9,6.2c3.8,1.9,7.5,4,11.2,6c1.6,0.9,2.8,0.4,4.1-0.8c14.3-12.7,24.3-28.3,32.5-45.3
			c4.9-10.2,9.9-20.5,14.9-30.7c1.1-2.2,0.9-3.8-0.4-5.9c-3.7-6-7.6-11.9-10.4-18.3c-4.3-9.5-3.8-19.4-0.2-29.1
			c1.8-4.9,5.2-8.7,9.4-11.7c10.5-7.5,22-10.6,34.8-7.2c0.5,0.1,1,0.4,1.4,0.6C241.4,185.5,241.4,185.8,241.5,186.2z M225.2,263.2
			c6.8,4.5,13.9,7,21.5,7.1c19.2,0.3,34.3-7.1,44-24.3c5-8.8,8.9-18,8.6-28.4c-0.4-13-12.2-22.7-24.8-20.7
			c-9.3,1.5-16.2,6.8-21.9,13.9c-6.6,8.1-11.4,17.3-15.9,26.7C232.7,246,229,254.7,225.2,263.2z M145.4,340.6
			c-5.5-6.5-11.8-11-19.5-13c-7.4-1.9-14.3,2.3-16.2,9.1c-0.8,3,0,5.4,2.6,7c1.3,0.8,2.8,1.4,4.3,1.6
			C126.5,347.3,135.8,344.6,145.4,340.6z"/>
		<path fill="#6A1D21" d="M54,298.8c1.5,0,2.8,0,4.2,0c1.3,66.7,24.9,124,73.2,170.1c48.3,46.1,106.6,67.7,173.3,64.8
			c62.5-2.8,115.9-27.3,159.2-72.5c43.2-45.2,64.3-99.7,65.4-162.3c1.3,0,2.7,0,4.7,0c-2.4,80.9-34.7,146.4-100.1,194.4
			c-75.7,55.5-178.2,60.5-259.4,13.5C87.7,456.7,53.2,369.3,54,298.8z"/>
		<path fill="#6A1C20" d="M164.4,103.3c2,0.4,4.2,0.4,5.9,1.4c3.9,2.1,5,7.1,2.3,10.7c-1.8,2.3-4.3,4.1-6.6,5.9
			c-2.4,1.9-5,3.6-7.5,5.3c-0.1,0.1-0.3,0.1-0.7,0.2c-5.5-7.8-11.1-15.7-16.8-23.9c4.6-3,8.8-6.3,13.4-8.8c4.7-2.6,9.7-0.1,10.5,4.7
			C165.1,100.4,164.6,102,164.4,103.3z M159.5,120.6c2.8-2.1,5.4-3.9,7.9-6c1.6-1.4,2.2-3.3,0.8-5.3c-1.4-2-3.4-2.1-5.3-1.1
			c-2.8,1.6-5.5,3.6-8.3,5.4C156.3,116.1,157.8,118.2,159.5,120.6z M147.7,103.8c1.5,2.1,2.9,4.1,4.5,6.3c2.5-1.8,4.8-3.3,6.9-5
			c2-1.6,2.3-3.8,0.9-5.5c-1.5-1.9-3.5-1.8-5.3-0.7C152.3,100.4,150.1,102.1,147.7,103.8z"/>
		<path fill="#6A1C20" d="M91.1,154.9c3.2-4,6.1-8,9.4-11.7c2.7-3,6-3.8,8.7-2.5c3.4,1.6,4.7,4.3,4.3,7.3c2.3,0,4.6-0.5,6.7,0.1
			c4.6,1.4,6.5,6.1,4.2,10.7c-1.4,2.8-3.4,5.3-5.3,7.8c-1.5,2.1-3.2,4.1-4.9,6.3C106.5,166.9,98.9,161,91.1,154.9z M113.9,166.3
			c1.9-2.6,3.8-4.9,5.5-7.3c1.6-2.4,1.3-4.8-0.5-6.1c-2.2-1.6-4.2-0.7-5.8,1c-2.1,2.2-3.9,4.7-5.9,7.2
			C109.5,162.9,111.5,164.5,113.9,166.3z M103.8,158.5c1.8-2.4,3.7-4.5,5.2-6.9c1.4-2.1,1-4.4-0.7-5.5c-2-1.3-3.9-0.7-5.3,1
			c-1.8,2.1-3.4,4.3-5.2,6.6C99.7,155.3,101.6,156.7,103.8,158.5z"/>
		<path fill="#6A1D21" d="M255,83.7c-8.5,0-15-6.4-15-14.8c0-8.4,7.1-15,16-14.9c8.5,0.1,15.2,6.6,15.1,14.8
			C271,77.1,263.9,83.7,255,83.7z M245,68.8c0,5.8,4.8,10.5,10.6,10.4c5.7-0.1,10.2-4.7,10.3-10.4c0-5.8-4.4-10.3-10.2-10.3
			C249.6,58.4,245,63,245,68.8z"/>
		<path fill="#6B1D21" d="M332.2,58.4c-0.4,2.7-0.8,5.1-1.3,7.7c4.7,0.8,9.3,1.6,14.1,2.4c-0.2,1.4-0.5,2.7-0.7,4.3
			c-4.6-0.7-9.2-1.5-14.1-2.3c-0.4,2.7-0.8,5.2-1.2,7.9c5.4,0.9,10.6,1.8,16.1,2.7c-0.2,1.4-0.4,2.8-0.6,4.4
			c-7.1-1.2-14.1-2.3-21.2-3.5c1.6-9.7,3.1-19.2,4.7-29c6.9,1.1,13.6,2.2,20.6,3.4c-0.2,1.4-0.3,2.7-0.6,4.4
			C342.7,60.1,337.5,59.2,332.2,58.4z"/>
		<path fill="#6A1D21" d="M534.1,236.6c1.4,7.1,2.7,13.7,4,20.5c-1.5,0.3-2.8,0.6-4.3,0.9c-1.1-5.3-2.1-10.5-3.1-15.7
			c-2.5,0.5-4.9,1-7.6,1.5c0.9,4.7,1.7,9.3,2.6,14c-1.5,0.3-2.8,0.6-4.3,0.9c-0.9-4.7-1.8-9.2-2.8-14c-2.6,0.5-5.1,0.9-7.9,1.4
			c1,5.3,2,10.5,3.1,16.1c-1.4,0.3-2.7,0.6-4.3,1c-1.4-7.1-2.7-13.9-4.1-21.1C514.9,240.3,524.3,238.5,534.1,236.6z"/>
		<path fill="#6A1D21" d="M419.7,85.8c4.4,2.3,4.5,2.3,4,6.6c-1.1,8.8-2.2,17.5-3.4,26.3c0,0.3-0.2,0.7-0.3,1
			c-4.5-1.6-4.7-1.7-3.9-6.2c0.5-2.6-0.2-4-2.5-5c-1.2-0.5-2.4-1.2-3.5-2.1c-4.1-3.3-8-4.8-11.7,0.6c-1.7-1-3-1.8-4.8-2.8
			C402.4,98.1,411,92,419.7,85.8z M419.1,91.6c-4.2,3.1-7.6,5.6-11.4,8.3c3.3,1.9,6.2,3.7,9.4,5.6
			C417.8,100.9,418.4,96.6,419.1,91.6z"/>
		<path fill="#6A1C21" d="M487.1,196.8c-3-4.3-3.1-4.3-0.1-8.1c1.3-1.6,1.3-2.8,0.2-4.5c-1.8-2.7-3.5-5.5-5.1-8.3
			c-0.8-1.5-1.6-2.3-3.4-1.7c-0.2,0.1-0.5,0-0.8,0.1c-4.5,0.5-4.5,0.6-6.7-3.8c7-0.9,13.8-1.8,20.7-2.7c3.1-0.4,6.3-0.9,9.4-1.1
			c0.7-0.1,1.9,0.5,2.2,1.2c0.7,1.1,1.6,3,1.1,3.7C499,180,493.1,188.3,487.1,196.8z M485.5,173.2c2,3.3,3.8,6.3,5.8,9.4
			c2.8-3.9,5.3-7.4,8.2-11.4C494.6,171.9,490.2,172.6,485.5,173.2z"/>
		<path fill="#691B1F" d="M95.6,204.6c-1,4.9-1,5.1-5.7,5c-2.4,0-3.5,0.8-4.2,3.1c-0.9,3-2,6-3.3,8.9c-0.7,1.6-0.5,2.7,0.9,3.7
			c0.1,0.1,0.3,0.2,0.4,0.4c3.2,3.1,3.2,3.1,1.3,7.6c-0.5-0.4-1-0.7-1.4-1.1c-6.6-6.5-13.3-13.1-19.9-19.6c-1.1-1.1-1.5-2-0.8-3.5
			c0.7-1.5,0.9-2.8,3.2-2.9C75.9,205.8,85.7,205.2,95.6,204.6z M68.1,210.7c3.6,3.5,6.8,6.5,10.1,9.7c1.4-3.6,2.6-6.8,3.9-10.3
			C77.4,210.3,73,210.5,68.1,210.7z"/>
		<path fill="#6B1E22" d="M391.6,75.7c-1.2,0.7-2.4,1.4-3.6,2.1c-5.1-6.8-10.1-8.6-15.4-5.6c-4.5,2.5-6.5,8.1-4.5,12.9
			c2.3,5.5,7.5,7.5,14.9,5.6c0.5,1.2,1,2.5,1.5,3.8c-7.5,3.9-17,0.7-20.7-6.8c-3.6-7.4-0.6-16.3,6.8-19.8
			C378.4,64.1,388,67.6,391.6,75.7z"/>
		<path fill="#6A1D21" d="M481.8,142.9c-1.5,0.2-2.8,0.3-4.1,0.5c-1.6-8.2-5.3-11.8-11.6-11.5c-5,0.3-9.1,4.4-9.4,9.5
			c-0.4,6.1,3.3,10.1,10.9,11.6c0,1.4,0,2.7,0,4.1c-8.9,0.1-16.1-6.9-16.1-15.4c0.1-8,6.8-14.7,14.7-14.7
			C474.7,127.1,481.9,134.2,481.8,142.9z"/>
		<path fill="#6A1D21" d="M507,210.3c-3.8,1.5-7.4,2.8-11.2,4.2c-0.6-1.6-1.1-3-1.7-4.6c9.2-3.5,18.1-7,27.3-10.5
			c2.4,6.1,4.7,12.2,7,18.4c-1.4,0.6-2.7,1-4.1,1.6c-1.8-4.5-3.5-9-5.3-13.7c-2.7,1-5.2,2-7.8,3c1.6,4.1,3.1,8.1,4.7,12.4
			c-1.4,0.6-2.6,1-4,1.6C510.2,218.7,508.7,214.7,507,210.3z"/>
		<path fill="#6C2324" d="M308.5,51.1c0,1.4,0,2.8,0,4.2c-3,0-6.1,0-9.5,0c0,8.6,0,16.8,0,24.9c-1.8,0-3.3,0-5.1,0
			c0-8.3,0-16.5,0-24.8c-3.1,0-6,0-9.4,0c0.4-1.7,0.8-3.1,1.1-4.4C293.3,51,300.9,51.1,308.5,51.1z"/>
		<path fill="#6A1D21" d="M49.2,255.7c0.4-1.7,0.7-3.2,1-4.9c8.1,1.7,16,3.4,24.2,5.2c0.9-4.1,1.8-8.1,2.8-12.3
			c1.5,0.3,2.8,0.6,4.4,0.9c-1.2,5.8-2.5,11.4-3.7,17.3C68.3,259.8,59,257.8,49.2,255.7z"/>
		<path fill="#6A1E21" d="M193.9,99.2c3.9-2.2,7.4-4.1,11-6.2c0.8,1.4,1.4,2.5,2.2,3.9c-5.1,2.9-10.1,5.7-15.3,8.7
			c-4.8-8.5-9.6-17-14.4-25.6c1.5-0.8,2.8-1.6,4.3-2.4C185.8,84.8,189.8,91.9,193.9,99.2z"/>
		<path fill="#6A1D21" d="M226.7,90.3c-1.6,0.5-3.1,0.9-4.7,1.5c-2.8-9.3-5.6-18.5-8.5-28c1.5-0.5,3-0.9,4.7-1.5
			C221,71.6,223.8,80.9,226.7,90.3z"/>
		<path fill="#691D21" d="M120.4,121.5c1.3-1.2,2.4-2.2,3.6-3.4c6.7,7.2,13.3,14.3,20,21.5c-1.2,1.1-2.3,2.2-3.6,3.4
			C133.7,135.8,127.1,128.7,120.4,121.5z"/>
		<path fill="#EFCDC4" d="M285.7,50.9c-0.3,1.4-0.7,2.8-1.1,4.4c3.4,0,6.2,0,9.4,0c0,8.4,0,16.5,0,24.8c1.7,0,3.2,0,5.1,0
			c0-8.1,0-16.3,0-24.9c3.4,0,6.4,0,9.5,0c-1.8,0.2-3.7,0.7-5.5,0.6c-2.7-0.2-3.3,0.9-3.3,3.4c0.2,6.1,0.1,12.3,0.1,18.4
			c0,3.6-0.1,2.9-3.4,3.5c-3.9,0.7-3-1.7-3.1-3.5c-0.1-6.3,0-12.7,0-19c0-3-0.6-3.4-3.3-2.3c-2.5,1-5.5,0.1-6.2-2.2
			c-0.6-1.8-0.6-3.5,1.9-3.8C285.7,50.6,285.7,50.8,285.7,50.9z"/>
		<path fill="#6C2226" d="M538.9,243.7c2.3,1,4.3,2,6.6,3c-0.3,1.6-0.6,3.2-0.8,4.7C541,250.3,539.1,247.8,538.9,243.7z"/>
		<path fill="#FBD8D4" d="M285.7,50.9c0-0.1,0-0.3,0-0.4c6.8,0,13.5,0,20.3,0c0.8,0,1.7,0.4,2.5,0.6C300.9,51.1,293.3,51,285.7,50.9
			z"/>
		<path fill="#EEE7D1" d="M225.2,263.2c3.8-8.6,7.4-17.2,11.5-25.7c4.5-9.4,9.2-18.6,15.9-26.7c5.7-7,12.6-12.4,21.9-13.9
			c12.7-2.1,24.5,7.7,24.8,20.7c0.3,10.4-3.6,19.6-8.6,28.4c-9.6,17.2-24.8,24.6-44,24.3C239.1,270.3,232.1,267.8,225.2,263.2z"/>
		<path fill="#EDE4D0" d="M145.4,340.6c-9.6,3.9-18.8,6.7-28.8,4.8c-1.5-0.3-3-0.9-4.3-1.6c-2.6-1.6-3.5-4-2.6-7
			c1.9-6.8,8.8-11,16.2-9.1C133.6,329.6,139.8,334.2,145.4,340.6z"/>
		<path fill="#ECE0CD" d="M159.5,120.6c-1.7-2.4-3.2-4.5-4.9-7c2.8-1.9,5.5-3.8,8.3-5.4c1.9-1.1,3.9-0.9,5.3,1.1
			c1.4,2,0.8,3.9-0.8,5.3C165,116.7,162.3,118.6,159.5,120.6z"/>
		<path fill="#ECE1CE" d="M147.7,103.8c2.5-1.7,4.7-3.4,7-4.9c1.8-1.1,3.8-1.3,5.3,0.7c1.3,1.7,1,3.8-0.9,5.5
			c-2.1,1.7-4.5,3.3-6.9,5C150.6,108,149.2,105.9,147.7,103.8z"/>
		<path fill="#ECE0CE" d="M113.9,166.3c-2.3-1.8-4.4-3.4-6.7-5.2c2-2.5,3.8-5,5.9-7.2c1.6-1.7,3.5-2.6,5.8-1
			c1.8,1.3,2.1,3.7,0.5,6.1C117.7,161.5,115.8,163.8,113.9,166.3z"/>
		<path fill="#ECE1CF" d="M103.8,158.5c-2.2-1.7-4-3.2-6.1-4.8c1.8-2.3,3.4-4.5,5.2-6.6c1.4-1.7,3.2-2.4,5.3-1
			c1.8,1.2,2.2,3.4,0.7,5.5C107.4,153.9,105.6,156,103.8,158.5z"/>
		<path fill="#EDE4D0" d="M245,68.8c0-5.8,4.7-10.3,10.6-10.3c5.8,0,10.3,4.5,10.2,10.3c0,5.7-4.6,10.3-10.3,10.4
			C249.8,79.3,245,74.5,245,68.8z"/>
		<path fill="#ECDECC" d="M419.1,91.6c-0.7,5-1.3,9.3-1.9,13.9c-3.2-1.9-6.2-3.7-9.4-5.6C411.5,97.2,414.9,94.7,419.1,91.6z"/>
		<path fill="#ECDECC" d="M485.5,173.2c4.7-0.7,9.1-1.3,13.9-2c-2.8,4-5.4,7.5-8.2,11.4C489.4,179.5,487.6,176.6,485.5,173.2z"/>
		<path fill="#EBDECD" d="M68.1,210.7c5-0.2,9.3-0.4,14-0.7c-1.3,3.5-2.5,6.7-3.9,10.3C74.8,217.2,71.7,214.2,68.1,210.7z"/>
	</g>
</g>
</svg>
