<?xml version="1.0" encoding="utf-8"?>
<!-- Generator: Adobe Illustrator 24.1.2, SVG Export Plug-In . SVG Version: 6.00 Build 0)  -->
<svg version="1.1" id="Capa_1" xmlns="http://www.w3.org/2000/svg" xmlns:xlink="http://www.w3.org/1999/xlink" x="0px" y="0px"
	 viewBox="0 0 123 123" style="enable-background:new 0 0 123 123;" xml:space="preserve">
<style type="text/css">
	.st0{fill:#A5A5A5;}
	.st1{fill:#E8E3DF;}
	.st2{fill:none;}
	.st3{filter:url(#Adobe_OpacityMaskFilter);}
	.st4{mask:url(#SVGID_1_);}
	.st5{clip-path:url(#SVGID_3_);fill:#FF9D33;}
	.st6{clip-path:url(#SVGID_3_);fill:#FFCE31;}
	.st7{clip-path:url(#SVGID_3_);fill:#FFDF85;}
	.st8{filter:url(#Adobe_OpacityMaskFilter_1_);}
	.st9{mask:url(#SVGID_4_);}
	.st10{filter:url(#Adobe_OpacityMaskFilter_2_);}
	.st11{mask:url(#SVGID_11_);}
	.st12{clip-path:url(#SVGID_13_);}
	.st13{filter:url(#Adobe_OpacityMaskFilter_3_);}
	.st14{mask:url(#SVGID_14_);}
	.st15{clip-path:url(#SVGID_16_);fill:#3A3A3A;}
	.st16{opacity:0.5;}
	.st17{fill:#191513;}
	.st18{fill:#F8F7FA;}
	.st19{opacity:0.21;fill:#A6A6AA;}
	.st20{fill:#846046;}
	.st21{fill:#7F4437;}
	.st22{fill:#FFFFFF;}
	.st23{clip-path:url(#SVGID_22_);}
	.st24{clip-path:url(#SVGID_26_);}
	.st25{fill-rule:evenodd;clip-rule:evenodd;fill:none;}
	.st26{fill:#3A3A3A;}
	.st27{clip-path:url(#SVGID_30_);}
	.st28{opacity:0.6;}
	.st29{fill:#231B18;}
	.st30{opacity:0.3;fill:#7F4437;}
	.st31{filter:url(#Adobe_OpacityMaskFilter_4_);}
	.st32{filter:url(#Adobe_OpacityMaskFilter_5_);}
	.st33{mask:url(#SVGID_37_);}
	.st34{clip-path:url(#SVGID_39_);}
	.st35{clip-path:url(#SVGID_43_);}
	.st36{clip-path:url(#SVGID_45_);}
	.st37{clip-path:url(#SVGID_49_);}
	.st38{clip-path:url(#SVGID_51_);}
	.st39{filter:url(#Adobe_OpacityMaskFilter_6_);}
	.st40{clip-path:url(#SVGID_49_);mask:url(#SVGID_54_);}
	.st41{clip-path:url(#SVGID_56_);fill:#846046;}
	.st42{clip-path:url(#SVGID_56_);fill:#F8F7FA;}
	.st43{clip-path:url(#SVGID_56_);fill:#FFFFFF;}
	.st44{clip-path:url(#SVGID_49_);fill:#846046;}
	.st45{clip-path:url(#SVGID_49_);fill:#F8F7FA;}
	.st46{clip-path:url(#SVGID_58_);fill:#FFFFFF;}
	.st47{filter:url(#Adobe_OpacityMaskFilter_7_);}
	.st48{mask:url(#SVGID_59_);}
	.st49{clip-path:url(#SVGID_61_);fill:#FF9D33;}
	.st50{clip-path:url(#SVGID_61_);fill:#FFCE31;}
	.st51{clip-path:url(#SVGID_61_);fill:#FFDF85;}
	.st52{fill:#CBCBD4;}
	.st53{fill:#82212C;}
	.st54{filter:url(#Adobe_OpacityMaskFilter_8_);}
	.st55{mask:url(#SVGID_62_);}
	.st56{clip-path:url(#SVGID_64_);fill:#F8F7FA;}
	.st57{clip-path:url(#SVGID_64_);fill:#CBCBD4;}
	.st58{clip-path:url(#SVGID_64_);fill:#846046;}
	.st59{clip-path:url(#SVGID_64_);fill:#A6A6AA;}
	.st60{clip-path:url(#SVGID_66_);fill:#CBCBD4;}
	.st61{clip-path:url(#SVGID_68_);fill:#FFFFFF;}
	.st62{clip-path:url(#SVGID_70_);}
	.st63{filter:url(#Adobe_OpacityMaskFilter_9_);}
	.st64{mask:url(#SVGID_73_);}
	.st65{clip-path:url(#SVGID_75_);}
	.st66{clip-path:url(#SVGID_79_);}
	.st67{clip-path:url(#SVGID_81_);}
	.st68{clip-path:url(#SVGID_83_);}
	.st69{filter:url(#Adobe_OpacityMaskFilter_10_);}
	.st70{clip-path:url(#SVGID_81_);mask:url(#SVGID_86_);}
	.st71{clip-path:url(#SVGID_88_);fill:#846046;}
	.st72{clip-path:url(#SVGID_88_);fill:#F8F7FA;}
	.st73{clip-path:url(#SVGID_88_);fill:#FFFFFF;}
	.st74{clip-path:url(#SVGID_81_);fill:#846046;}
	.st75{clip-path:url(#SVGID_81_);fill:#F8F7FA;}
	.st76{clip-path:url(#SVGID_90_);}
	.st77{clip-path:url(#SVGID_94_);}
	.st78{clip-path:url(#SVGID_98_);}
	.st79{clip-path:url(#SVGID_100_);}
	.st80{clip-path:url(#SVGID_104_);fill:#846046;}
	.st81{clip-path:url(#SVGID_104_);fill:#FFFFFF;}
	.st82{clip-path:url(#SVGID_106_);fill:#FFFFFF;}
	.st83{filter:url(#Adobe_OpacityMaskFilter_11_);}
	.st84{mask:url(#SVGID_107_);}
	.st85{clip-path:url(#SVGID_109_);}
	.st86{filter:url(#Adobe_OpacityMaskFilter_12_);}
	.st87{mask:url(#SVGID_110_);}
	.st88{clip-path:url(#SVGID_112_);fill:#3A3A3A;}
	.st89{filter:url(#Adobe_OpacityMaskFilter_13_);}
	.st90{mask:url(#SVGID_113_);}
	.st91{clip-path:url(#SVGID_115_);fill:#FF9D33;}
	.st92{clip-path:url(#SVGID_115_);fill:#FFCE31;}
	.st93{clip-path:url(#SVGID_115_);fill:#FFDF85;}
	.st94{filter:url(#Adobe_OpacityMaskFilter_14_);}
	.st95{mask:url(#SVGID_116_);}
	.st96{filter:url(#Adobe_OpacityMaskFilter_15_);}
	.st97{mask:url(#SVGID_123_);}
	.st98{clip-path:url(#SVGID_125_);}
	.st99{filter:url(#Adobe_OpacityMaskFilter_16_);}
	.st100{mask:url(#SVGID_126_);}
	.st101{clip-path:url(#SVGID_128_);fill:#3A3A3A;}
	.st102{fill:#B7B7B7;}
	.st103{filter:url(#Adobe_OpacityMaskFilter_17_);}
	.st104{mask:url(#SVGID_131_);}
	.st105{clip-path:url(#SVGID_133_);fill:#FF9D33;}
	.st106{clip-path:url(#SVGID_133_);fill:#FFCE31;}
	.st107{clip-path:url(#SVGID_133_);fill:#FFDF85;}
	.st108{filter:url(#Adobe_OpacityMaskFilter_18_);}
	.st109{mask:url(#SVGID_134_);}
	.st110{filter:url(#Adobe_OpacityMaskFilter_19_);}
	.st111{mask:url(#SVGID_141_);}
	.st112{clip-path:url(#SVGID_143_);}
	.st113{filter:url(#Adobe_OpacityMaskFilter_20_);}
	.st114{mask:url(#SVGID_144_);}
	.st115{clip-path:url(#SVGID_146_);fill:#3A3A3A;}
	.st116{filter:url(#Adobe_OpacityMaskFilter_21_);}
	.st117{mask:url(#SVGID_147_);}
	.st118{clip-path:url(#SVGID_149_);fill:#FF9D33;}
	.st119{clip-path:url(#SVGID_149_);fill:#FFCE31;}
	.st120{clip-path:url(#SVGID_149_);fill:#FFDF85;}
	.st121{filter:url(#Adobe_OpacityMaskFilter_22_);}
	.st122{mask:url(#SVGID_150_);}
	.st123{filter:url(#Adobe_OpacityMaskFilter_23_);}
	.st124{mask:url(#SVGID_157_);}
	.st125{clip-path:url(#SVGID_159_);}
	.st126{filter:url(#Adobe_OpacityMaskFilter_24_);}
	.st127{mask:url(#SVGID_160_);}
	.st128{clip-path:url(#SVGID_162_);fill:#3A3A3A;}
	.st129{fill:none;stroke:#231B18;stroke-width:0.75;stroke-miterlimit:10;}
	.st130{filter:url(#Adobe_OpacityMaskFilter_25_);}
	.st131{mask:url(#SVGID_165_);}
	.st132{clip-path:url(#SVGID_167_);fill:#FF9D33;}
	.st133{clip-path:url(#SVGID_167_);fill:#FFCE31;}
	.st134{clip-path:url(#SVGID_167_);fill:#FFDF85;}
	.st135{filter:url(#Adobe_OpacityMaskFilter_26_);}
	.st136{mask:url(#SVGID_168_);}
	.st137{filter:url(#Adobe_OpacityMaskFilter_27_);}
	.st138{mask:url(#SVGID_175_);}
	.st139{clip-path:url(#SVGID_177_);}
	.st140{filter:url(#Adobe_OpacityMaskFilter_28_);}
	.st141{mask:url(#SVGID_178_);}
	.st142{clip-path:url(#SVGID_180_);fill:#3A3A3A;}
	.st143{filter:url(#Adobe_OpacityMaskFilter_29_);}
	.st144{mask:url(#SVGID_183_);}
	.st145{clip-path:url(#SVGID_185_);fill:#FF9D33;}
	.st146{clip-path:url(#SVGID_185_);fill:#FFCE31;}
	.st147{clip-path:url(#SVGID_185_);fill:#FFDF85;}
	.st148{filter:url(#Adobe_OpacityMaskFilter_30_);}
	.st149{mask:url(#SVGID_186_);}
	.st150{filter:url(#Adobe_OpacityMaskFilter_31_);}
	.st151{mask:url(#SVGID_193_);}
	.st152{clip-path:url(#SVGID_195_);}
	.st153{filter:url(#Adobe_OpacityMaskFilter_32_);}
	.st154{mask:url(#SVGID_196_);}
	.st155{clip-path:url(#SVGID_198_);fill:#3A3A3A;}
	.st156{clip-path:url(#SVGID_202_);}
	.st157{clip-path:url(#SVGID_202_);fill:none;}
	.st158{opacity:0.21;clip-path:url(#SVGID_202_);fill:#A6A6AA;}
	.st159{clip-path:url(#SVGID_202_);fill:#7F4437;}
	.st160{clip-path:url(#SVGID_202_);fill:#E8E3DF;}
	.st161{clip-path:url(#SVGID_206_);}
	.st162{fill:#070707;}
	.st163{fill:none;stroke:#7F4437;stroke-miterlimit:10;}
	.st164{fill:none;stroke:#000000;stroke-miterlimit:10;}
	.st165{filter:url(#Adobe_OpacityMaskFilter_33_);}
	.st166{mask:url(#SVGID_213_);}
	.st167{clip-path:url(#SVGID_215_);fill:#FF9D33;}
	.st168{clip-path:url(#SVGID_215_);fill:#FFCE31;}
	.st169{clip-path:url(#SVGID_215_);fill:#FFDF85;}
	.st170{filter:url(#Adobe_OpacityMaskFilter_34_);}
	.st171{mask:url(#SVGID_216_);}
	.st172{filter:url(#Adobe_OpacityMaskFilter_35_);}
	.st173{mask:url(#SVGID_223_);}
	.st174{clip-path:url(#SVGID_225_);}
	.st175{filter:url(#Adobe_OpacityMaskFilter_36_);}
	.st176{mask:url(#SVGID_226_);}
	.st177{clip-path:url(#SVGID_228_);fill:#3A3A3A;}
	.st178{clip-path:url(#SVGID_232_);}
	.st179{clip-path:url(#SVGID_232_);fill:none;}
	.st180{opacity:0.21;clip-path:url(#SVGID_232_);fill:#A6A6AA;}
	.st181{clip-path:url(#SVGID_232_);fill:#7F4437;}
	.st182{clip-path:url(#SVGID_232_);fill:#E8E3DF;}
	.st183{filter:url(#Adobe_OpacityMaskFilter_37_);}
	.st184{mask:url(#SVGID_235_);}
	.st185{clip-path:url(#SVGID_237_);fill:#FF9D33;}
	.st186{clip-path:url(#SVGID_237_);fill:#FFCE31;}
	.st187{clip-path:url(#SVGID_237_);fill:#FFDF85;}
	.st188{filter:url(#Adobe_OpacityMaskFilter_38_);}
	.st189{mask:url(#SVGID_238_);}
	.st190{filter:url(#Adobe_OpacityMaskFilter_39_);}
	.st191{mask:url(#SVGID_245_);}
	.st192{clip-path:url(#SVGID_247_);}
	.st193{filter:url(#Adobe_OpacityMaskFilter_40_);}
	.st194{mask:url(#SVGID_248_);}
	.st195{clip-path:url(#SVGID_250_);fill:#3A3A3A;}
</style>
<g>
	<defs>
		<rect id="SVGID_19_" x="252.3" y="-963.3" width="375" height="812"/>
	</defs>
	<clipPath id="SVGID_1_">
		<use xlink:href="#SVGID_19_"  style="overflow:visible;"/>
	</clipPath>
	<g transform="matrix(1 0 0 1 0 -6.103516e-05)" style="clip-path:url(#SVGID_1_);">
		
			<image style="overflow:visible;" width="564" height="704" xlink:href="274F6864.jpg"  transform="matrix(1.4311 0 0 1.4311 -53.6277 -980.6171)">
		</image>
	</g>
</g>
<g>
	<path class="st1" d="M61.5,123C27.5,122.9,0,95.4,0,61.4C0,27.4,27.7-0.1,61.7,0c34,0.1,61.4,27.7,61.3,61.7
		C122.9,95.5,95.3,123.1,61.5,123z M61.5,2.8C29.3,2.8,3,29.1,2.8,61.4c-0.1,32.2,26.3,58.7,58.6,58.7c32.3,0,58.8-26.4,58.7-58.6
		C120.1,29.2,93.7,2.7,61.5,2.8z"/>
	<path class="st1" d="M61.5,115.9C31.4,116,6.7,91.1,7.2,60.7C7.6,30.8,32.4,6.4,62.8,7c29.6,0.6,53.9,25.3,53.2,55.7
		C115.3,92.2,91.1,116.1,61.5,115.9z M39.9,51.6c-2.3-2.8-2.3-7.9-0.2-11.5c1.7-2.9,3.8-3.8,7.1-3.2c0.5,0.1,1-0.3,1.5-0.5
		c-0.3-0.5-0.5-1.2-0.9-1.4c-5.1-2.3-10.3-1-12.3,4.9c-1.4,4.3-1.1,8.6,1.7,12.1c2,2.6,1.6,4.7,0.6,7.2c-0.3,0.8-0.6,1.6-1,2.3
		c-2,4.4-4.2,8.6-7.5,12.1c-0.9,1-1.8,1.1-3.1,0.7c-2.5-0.8-5-1.4-7.6-1.6c-2.7-0.2-4.4,1.4-4.4,3.5c0,2.2,1.6,4,4.1,4.1
		c1.6,0.1,3.3,0,4.8-0.5c2-0.7,3.5-0.2,5.1,0.9c5,3.3,10.4,5.5,16.4,6.2c6,0.7,11.8-0.3,16.3-4.7c2.6-2.6,5.2-5.4,7-8.6
		c4.2-7.4,7.7-15.1,11.7-22.7c1.5-2.9,3.2-5.6,5-8.3c1.1-1.7,2.8-3,5-2.7c2.3,0.3,3.3,2.1,4,4c1.1,2.9,0.9,5.9,0.1,8.9
		c-0.3,1.1-1,1.1-1.9,1.1c-1.8,0.1-3.6,0.2-5.4,0.6c-1.9,0.5-2.6,1.8-2.4,3.3c0.3,1.7,1.8,3.1,3.6,2.8c2-0.4,4-1.1,5.9-2
		c1-0.5,1.6-0.6,2.5,0c4.9,2.8,7.2,7.9,5.8,13.3c-1.3,5.5-3.9,10.2-9,13.1c-4.4,2.5-9.9,1.9-12.8-1.2c-1.6-1.7-2.2-5-1.1-6.8
		c0.4-0.7,0.8-1.6,2-1c1.9,0.9,3,0.5,4-1.2c0.8-1.5,0.3-3.1-1.4-4.1c-1.7-1-3.6-0.8-5.1,0.5c-3.8,3.3-4.1,9.9-0.5,13.5
		c3.3,3.3,7.5,5,12.3,4.3c7.5-1.1,14.2-7.9,15.9-15.9c1.3-5.9,0.1-11.2-4.6-15.3c-1.4-1.2-3.1-2.2-4.7-3.3c0.2-0.6,0.4-1.3,0.7-1.9
		c1.5-3.8,1.1-7.4-0.7-11c-3-5.9-8.7-6.9-13.4-2.2c-1.8,1.8-3.5,3.8-4.8,6c-5.4,9.6-10.7,19.4-16.1,29c-1.2,2.1-2.4,4.1-3.9,6
		c-2.2,2.7-5.3,4.1-8.8,3.9c-7.4-0.4-13.3-4.6-19.9-7.6c5.8-5.3,10.4-11.1,12.7-18.4c1.4,0.5,2.6,1.1,3.8,1.4
		c1.3,0.4,2.6,0.6,3.9,0.7c9.4,0.8,16.1-5.2,15.8-14c-0.1-5.2-3.3-8.9-8.4-9.6c-5-0.7-8.9,1.6-12.1,5.1
		C42.8,44.3,41.1,47.7,39.9,51.6z"/>
	<path class="st1" d="M49.7,57.5c-1.7-0.4-3.3-0.7-5-1.1c-1.1-0.3-1.5-1.1-1.2-2.2c1.5-5.3,3.7-10.2,8.2-13.6c2.7-2.1,5.4-2.2,8-0.4
		c2.6,1.7,3.5,4.6,2.7,7.8C60.7,53.7,55.9,57.3,49.7,57.5z"/>
	<path class="st1" d="M22.2,77.8c-1.7,0.6-3.4,1-5.1,0.1c-0.5-0.2-0.7-0.9-1-1.3c0.5-0.2,1.1-0.7,1.5-0.6c1.6,0.3,3.2,0.9,4.7,1.3
		C22.3,77.4,22.3,77.6,22.2,77.8z"/>
	<path class="st1" d="M91.4,56.9c-1.1,1.3-2.6,1.8-4.3,1.7c-0.3,0-0.8-0.4-0.8-0.6c0.1-0.4,0.3-0.9,0.6-1c1.5-0.3,2.9-0.5,4.4-0.7
		C91.3,56.5,91.3,56.7,91.4,56.9z"/>
</g>
<g>
	<defs>
		<rect id="SVGID_129_" x="270" y="133" width="342.3" height="255"/>
	</defs>
	<clipPath id="SVGID_3_">
		<use xlink:href="#SVGID_129_"  style="overflow:visible;"/>
	</clipPath>
	<g style="clip-path:url(#SVGID_3_);">
		
			<image style="overflow:visible;" width="1080" height="720" xlink:href="274F6865.jpg"  transform="matrix(0.5242 0 0 0.5242 60.2462 71.7496)">
		</image>
	</g>
</g>
</svg>
