<?xml version="1.0" encoding="utf-8"?>
<!-- Generator: Adobe Illustrator 24.1.2, SVG Export Plug-In . SVG Version: 6.00 Build 0)  -->
<svg version="1.1" id="Capa_1" xmlns="http://www.w3.org/2000/svg" xmlns:xlink="http://www.w3.org/1999/xlink" x="0px" y="0px"
	 viewBox="0 0 595.3 595.3" enable-background="new 0 0 595.3 595.3" xml:space="preserve">
<g>
	<g>
		<path fill="#69141C" d="M0,309.6c0-7.8,0-15.6,0-23.4c0.3-3,0.8-6,1-8.9c1.5-22.2,5.4-43.9,11.9-65.1
			C29.4,158,58.9,112,101.4,74.8C153.4,29.3,214.1,4.9,282.9,1.2c26.4-1.4,52.6,0.8,78.5,6.5C408,18,450,38,486.5,68.7
			c65.2,54.9,101.2,125,107.6,210.1c2.2,29.7-0.4,59.1-7.4,88.1c-16.6,68.1-52.6,123.7-107.9,166.6c-46.5,36.1-99.5,56.2-158.2,60.8
			c-3.1,0.2-6.2,0.6-9.3,1c-10,0-19.9,0-29.9,0c-0.5-0.2-0.9-0.5-1.4-0.5c-24.8-1.5-49.1-5.8-72.7-13.5
			C142.8,560.3,91.2,522,52.6,466.4C20.3,419.8,3.3,367.9,0.5,311.2C0.5,310.7,0.2,310.1,0,309.6z M113.5,148.8
			C113.5,148.8,113.6,148.9,113.5,148.8c-0.1-1.1,0-2.4-0.3-3.6c-1.5-5.5-7.9-6.9-12.3-2.4c-3.6,3.7-6.5,7.9-9.8,12
			c7.8,6.1,15.5,12.1,23.2,18.1c2.5-3.2,4.8-6.1,7.1-9.1c0.6-0.8,1.4-1.5,1.7-2.4c0.8-2.5,2.3-5.2,2-7.6
			C124.5,148.5,119.1,146.4,113.5,148.8z M241.5,186.1c-0.1-0.3-0.2-0.6-0.3-1c-0.3-0.2-0.6-0.4-0.9-0.5
			c-13.6-4.3-32.3,1.2-40.9,12.7c-7.3,9.7-7.8,20.7-4.7,32c2.2,7.9,6.8,14.5,11.4,21.1c1.5,2.1,1.8,3.9,0.6,6.3
			c-5.1,10.2-10,20.4-15,30.7c-8.1,16.8-18.1,32.3-32.1,44.9c-1.7,1.5-3.2,1.9-5,0.9c-3.5-1.9-6.9-3.9-10.5-5.7
			c-4.2-2.2-8.4-4.7-12.9-6.2c-10.6-3.5-21.5,1.2-25.6,10.5c-3.4,7.9-0.1,15.3,8.3,17.2c4.1,1,8.7,1.2,12.9,0.7
			c6.1-0.7,12.1-2.3,18-3.8c4.4-1.2,7.8-0.6,11.2,2.7c9.8,9.5,21.2,16.8,33.7,22.4c21.2,9.5,42.8,12.1,65.1,4.6
			c18.9-6.4,33.6-18.4,46.1-33.5c12-14.5,21.1-30.9,29.9-47.4c10.1-18.9,20-37.8,30.5-56.5c5.4-9.6,11.5-18.9,20-26.2
			c9.5-8.2,20.3-13.2,33.1-12.4c9.3,0.6,16.3,6.7,17.5,15.9c1.5,11.9-1.5,23.1-6.7,33.8c-0.9,1.9-2.3,2.7-4.5,2.6
			c-3-0.1-6,0.2-8.9,0.5c-6.5,0.7-13,1.4-18.8,4.7c-3.5,2-5.7,4.9-6.3,9c-0.4,2.5,0.3,4.4,2.8,5c3.1,0.7,6.3,1.6,9.5,1.5
			c7-0.3,13.2-3.4,19.4-6.3c3.4-1.6,6.8-1.9,10.2-0.4c2.5,1.1,5.2,2.3,7.3,4c15.7,13,20.6,30.1,17.2,49.6
			c-2.7,15.6-10.7,28.7-22,39.6c-19.5,18.9-47,17.4-65.5,6.5c-6-3.5-10.2-8.6-11.2-15.8c-1.1-8,0-15.7,4.4-22.7
			c0.9-1.4,2.1-2.5,2.9-3.4c3.5,2,6.4,4,9.6,5.3c4.3,1.8,7.9-0.2,9.4-4.6c1.5-4.5-1.3-9.4-6.8-11.7c-8.5-3.5-17.2,0.2-21.5,9.3
			c-3,6.4-3.5,13.2-3.5,20.1c0,12.9,5.8,22.3,17.2,28.2c19.2,10,39.2,11.4,59.6,4.9c18.6-6,33.4-17.1,42.5-34.8
			c6.3-12.3,7.4-25.6,5.9-39.1c-2.2-19.9-12-34.7-30.3-43.5c-2.6-1.3-5.4-2.2-8.3-3.3c1-1.8,1.8-3.6,2.8-5.1
			c5.5-7.7,7.1-16.3,6.4-25.5c-0.9-11.9-6.5-20.7-17.7-25.4c-10.4-4.4-20.9-3.6-31.3-0.2c-11.4,3.7-20.4,11.1-29,19.1
			c-14.6,13.6-25.3,30.2-33.8,48.1c-7.9,16.7-15.2,33.7-23,50.5c-6.7,14.2-14.7,27.6-26.3,38.5c-20.6,19.4-47,24.2-72.7,12.4
			c-15-6.9-29.2-15.4-42.9-24.8c-1.7-1.2-3.2-2.6-5-4.1c14.4-7.2,25.2-18,34.8-30.3c8.4-10.7,15.4-22.3,21.9-34.2
			c1.3-2.4,2.7-4.8,4-7.3c1,0.5,1.8,0.9,2.6,1.3c13,6.4,26.5,10.2,41.1,8.2c20.3-2.7,35.6-12.9,44.2-31.7c10.9-23.8-3-41.6-21-47.7
			c-11.7-4-23.2-2.9-33.8,3.1c-19.2,10.7-33.6,26.3-44.1,45.6c-0.4,0.8-0.8,1.7-1.2,2.5c-0.3,0-0.6,0.1-0.8,0.1
			c-1.3-2.6-2.9-5.1-3.9-7.9c-2.5-7.2-2.8-14.7-2.3-22.2c0.7-10.7,5.5-18.8,14.8-24.4c5.3-3.2,11.3-4.1,17.2-5.4
			C238.3,187.5,239.9,186.7,241.5,186.1z M529.1,298.9c-0.2,41.8-10.4,80.8-31.1,116.9c-20.8,36.2-49.3,65-85.3,86.1
			c-35.9,21.1-74.7,31.9-116.4,32.2c-58.8,0.4-111-18.1-155.4-56.5c-54.3-46.9-81.1-107-82.7-178.7c-0.7,0-1.4-0.1-2.1-0.1
			c-0.7,0-1.4,0.1-2.7,0.2c3.8,90.9,42.8,161.5,121.5,207.8c80,47.1,182.1,42,257.1-12.1c66.5-48,99.5-113.9,102-195.8
			C532,298.9,530.7,298.9,529.1,298.9z M158,127c4-2.9,8-5.5,11.7-8.5c1.6-1.2,2.9-3,3.8-4.8c2-4.4-1.4-9.8-6.2-10.1
			c-1-0.1-2.1,0.1-2.9,0.1c0.2-1.8,0.7-3.5,0.4-5c-1.1-5.2-6.4-7.1-11.6-4c-4.1,2.5-8,5.5-12.1,8.3C146.8,111.1,152.3,119,158,127z
			 M255.1,83.6c8.9,0,16-6.7,15.9-15.1c-0.1-8.1-6.7-14.6-15.1-14.7c-8.9-0.1-16,6.6-16,15C240,77.3,246.5,83.6,255.1,83.6z
			 M330.1,70.5c5,0.8,9.5,1.6,14.1,2.3c0.3-1.6,0.5-2.8,0.7-4.3c-4.8-0.8-9.4-1.6-14.1-2.4c0.4-2.6,0.8-5,1.3-7.7
			c5.3,0.8,10.5,1.7,15.7,2.5c0.2-1.6,0.4-2.8,0.7-4.3c-6.9-1.1-13.6-2.3-20.6-3.4c-1.6,9.7-3.2,19.2-4.8,28.9
			c7.1,1.2,14,2.3,21.1,3.5c0.2-1.6,0.4-3,0.6-4.4c-5.5-0.9-10.6-1.8-16.1-2.7C329.3,75.8,329.7,73.3,330.1,70.5z M522.9,243.8
			c2.8-0.5,5.1-1,7.7-1.5c1,5.2,2.1,10.4,3.1,15.7c1.5-0.3,2.8-0.6,4.3-0.9c-1.3-6.9-2.6-13.6-4-20.5c-9.7,1.9-19.2,3.8-28.7,5.6
			c1.4,7.2,2.7,14,4.1,21c1.6-0.3,2.9-0.6,4.3-0.9c-1.1-5.5-2.1-10.8-3.1-16.2c2.8-0.5,5.3-1,7.9-1.4c0.5,2.6,0.9,4.8,1.3,7
			c0.5,2.3,0.9,4.5,1.4,7c1.5-0.3,2.8-0.6,4.2-0.9C524.7,253.1,523.8,248.6,522.9,243.8z M403.9,102.7c2.9,1.7,5.7,3.4,8.6,5.2
			c4.1,2.5,4.2,2.5,3.3,7.3c-0.3,1.7-0.1,2.7,1.6,3.4c0.8,0.3,1.5,0.9,2.4,1.4c0.2-0.6,0.4-1.1,0.5-1.6c1.1-8.7,2.1-17.4,3.4-26
			c0.5-3.1-0.2-5-3.1-6c-0.3-0.1-0.6-0.3-1-0.4c-8.6,6.1-17.2,12.2-26,18.4c1.7,1,3,1.8,4.4,2.6C400,105.5,401.9,104.2,403.9,102.7z
			 M487.1,196.5c0.1-0.1,0.3-0.2,0.5-0.4c5.7-8,11.4-16.1,16.9-24.2c0.5-0.7,0-2.2-0.4-3.2c-0.5-1.2-1-2.3-2.9-2
			c-9.9,1.4-19.8,2.6-29.8,3.9c1.9,4.4,1.9,4.4,6.2,3.9c0.6-0.1,1.3-0.3,1.9-0.2c0.8,0.2,1.7,0.4,2.1,1c2.4,3.7,4.6,7.5,6.9,11.3
			C486.8,189.7,482,192.3,487.1,196.5z M95.6,204.8c-0.8,0-1.6,0-2.4,0c-8.9,0.5-17.9,1.1-26.8,1.4c-2.3,0.1-2.7,1.3-3.5,2.9
			c-0.8,1.7-0.1,2.6,1,3.7c6.5,6.4,13,12.8,19.5,19.2c0.5,0.5,1,0.8,1.6,1.3c1.9-4.4,1.9-4.4-1.4-7.6c-0.1-0.1-0.3-0.3-0.4-0.4
			c-1.4-1-1.6-2.1-0.9-3.7c1.3-2.9,2.5-5.8,3.3-8.8c0.7-2.5,2-3.2,4.4-3.1C94.5,209.7,94.5,209.6,95.6,204.8z M391.6,75.8
			c-3.1-7.8-12.9-11.5-20.7-8c-7.6,3.4-10.7,12.7-6.9,20.2c3.5,7,13.3,10.6,20.5,6.5c-0.5-1.2-1-2.4-1.5-3.6
			c-7.7,1.8-12.7-0.2-14.9-5.8c-1.8-4.6-0.1-10.2,4.2-12.4c2.1-1.1,4.9-1.4,7.3-1.3c4,0.3,6.4,3.3,8.3,6.6
			C389.2,77.1,390.3,76.5,391.6,75.8z M467.6,153.1c-7.7-1.8-11.4-5.7-11-11.6c0.3-4.8,4-9.2,8.6-9.4c2.4-0.1,5,0.5,7.2,1.5
			c3.8,1.9,4.7,5.8,5.3,9.8c1.5-0.2,2.8-0.4,4.1-0.6c0.2-8.6-7.1-15.8-15.8-15.7c-8,0.1-14.9,7.4-14.4,15.3c0.6,8.5,8,15.4,16,14.6
			C467.6,155.7,467.6,154.5,467.6,153.1z M528.4,217.8c-2.4-6.3-4.7-12.2-7.1-18.3c-9.2,3.5-18.2,7-27.3,10.5c0.6,1.7,1.2,3,1.8,4.6
			c3.8-1.4,7.4-2.8,11.2-4.2c1.7,4.2,3.3,8.3,4.9,12.4c1.4-0.6,2.6-1.1,4-1.6c-1.6-4.2-3.1-8.2-4.7-12.4c2.6-1,5.2-2,7.8-3
			c1.8,4.7,3.5,9.1,5.3,13.7C525.7,218.8,526.9,218.4,528.4,217.8z M294.2,55.5c0,8.4,0,16.6,0,24.7c1.8,0,3.2,0,5,0
			c0-8.3,0-16.4,0-24.8c3.2,0,6.2,0,9.1,0c0-1.6,0-2.9,0-4.2c-7.8,0-15.5,0-23.1,0c0,1.5,0,2.8,0,4.3
			C288.2,55.5,291,55.5,294.2,55.5z M49.3,255.6c9.5,2.1,18.9,4.1,28.6,6.2c1.2-5.8,2.5-11.5,3.7-17.2c-1.6-0.3-2.9-0.6-4.3-0.9
			c-1,4.2-1.9,8.2-2.8,12.3c-8.3-1.8-16.2-3.5-24.2-5.2C49.9,252.6,49.6,253.9,49.3,255.6z M204.9,93.1c-3.7,2-7.3,4-11.1,6.1
			c-4.1-7.3-8.1-14.4-12.2-21.6c-1.5,0.9-2.8,1.6-4.3,2.4c4.9,8.6,9.6,17,14.4,25.5c5.3-3,10.2-5.8,15.3-8.7
			C206.4,95.7,205.7,94.5,204.9,93.1z M213.5,63.7c2.8,9.4,5.6,18.6,8.4,28c1.6-0.5,3.1-0.9,4.7-1.4c-2.8-9.4-5.6-18.7-8.5-28.1
			C216.4,62.8,215,63.2,213.5,63.7z M144,139.5c-6.8-7.3-13.3-14.3-20-21.5c-1.3,1.2-2.4,2.3-3.6,3.4c6.7,7.2,13.3,14.3,19.9,21.4
			C141.6,141.8,142.7,140.7,144,139.5z M538.9,243.9c-0.3,4.3,2.7,5.9,5.5,7.9C545.6,246.5,545.6,246.5,538.9,243.9z"/>
		<path fill="#EDE4D0" d="M241.5,186.1c-1.6,0.6-3.1,1.3-4.8,1.7c-5.9,1.4-11.9,2.2-17.2,5.4c-9.2,5.6-14.1,13.7-14.8,24.4
			c-0.5,7.6-0.2,15,2.3,22.2c1,2.7,2.6,5.3,3.9,7.9c0.3,0,0.6-0.1,0.8-0.1c0.4-0.8,0.8-1.7,1.2-2.5c10.5-19.3,25-34.8,44.1-45.6
			c10.6-5.9,22.1-7,33.8-3.1c18.1,6.1,31.9,23.9,21,47.7c-8.6,18.7-23.9,28.9-44.2,31.7c-14.6,2-28.1-1.8-41.1-8.2
			c-0.8-0.4-1.6-0.8-2.6-1.3c-1.4,2.5-2.7,4.9-4,7.3c-6.5,11.9-13.5,23.5-21.9,34.2c-9.5,12.2-20.4,23-34.8,30.3
			c1.8,1.5,3.3,3,5,4.1c13.6,9.4,27.8,17.9,42.9,24.8c25.7,11.8,52.1,7,72.7-12.4c11.6-10.9,19.6-24.3,26.3-38.5
			c7.8-16.8,15-33.8,23-50.5c8.5-17.9,19.2-34.4,33.8-48.1c8.6-8,17.6-15.4,29-19.1c10.4-3.4,20.9-4.1,31.3,0.2
			c11.2,4.7,16.7,13.5,17.7,25.4c0.7,9.2-0.9,17.8-6.4,25.5c-1.1,1.5-1.8,3.3-2.8,5.1c2.9,1.1,5.7,2.1,8.3,3.3
			c18.3,8.7,28,23.5,30.3,43.5c1.5,13.5,0.5,26.8-5.9,39.1c-9.1,17.7-23.8,28.8-42.5,34.8c-20.5,6.6-40.4,5.1-59.6-4.9
			c-11.4-5.9-17.2-15.3-17.2-28.2c0-6.9,0.5-13.7,3.5-20.1c4.3-9.1,13-12.8,21.5-9.3c5.5,2.3,8.3,7.2,6.8,11.7
			c-1.5,4.4-5.1,6.3-9.4,4.6c-3.2-1.3-6.1-3.3-9.6-5.3c-0.8,0.9-2,2.1-2.9,3.4c-4.4,7-5.5,14.6-4.4,22.7c1,7.2,5.2,12.3,11.2,15.8
			c18.5,10.9,46,12.4,65.5-6.5c11.3-11,19.4-24,22-39.6c3.4-19.5-1.5-36.6-17.2-49.6c-2.1-1.7-4.8-2.9-7.3-4
			c-3.4-1.5-6.8-1.2-10.2,0.4c-6.2,2.9-12.4,6.1-19.4,6.3c-3.1,0.1-6.4-0.8-9.5-1.5c-2.5-0.6-3.2-2.5-2.8-5c0.6-4.1,2.8-6.9,6.3-9
			c5.8-3.4,12.3-4.1,18.8-4.7c3-0.3,6-0.6,8.9-0.5c2.2,0.1,3.5-0.7,4.5-2.6c5.2-10.7,8.2-21.8,6.7-33.8c-1.2-9.2-8.2-15.4-17.5-15.9
			c-12.9-0.8-23.7,4.2-33.1,12.4c-8.5,7.3-14.6,16.6-20,26.2c-10.5,18.6-20.4,37.6-30.5,56.5c-8.8,16.5-18,32.8-29.9,47.4
			c-12.5,15.1-27.2,27.2-46.1,33.5c-22.3,7.5-44,4.9-65.1-4.6c-12.5-5.6-23.9-12.9-33.7-22.4c-3.4-3.3-6.8-3.9-11.2-2.7
			c-5.9,1.6-11.9,3.1-18,3.8c-4.2,0.5-8.7,0.2-12.9-0.7c-8.4-1.9-11.7-9.4-8.3-17.2c4-9.3,14.9-14.1,25.6-10.5
			c4.5,1.5,8.6,4,12.9,6.2c3.5,1.8,7,3.8,10.5,5.7c1.9,1,3.3,0.7,5-0.9c14.1-12.6,24-28.1,32.1-44.9c5-10.2,9.9-20.5,15-30.7
			c1.2-2.5,0.9-4.2-0.6-6.3c-4.5-6.6-9.2-13.3-11.4-21.1c-3.2-11.3-2.6-22.4,4.7-32c8.6-11.5,27.3-17,40.9-12.7
			c0.3,0.1,0.6,0.3,0.9,0.5C241.3,185.5,241.4,185.8,241.5,186.1z M225.4,263.4c0.6,0.4,0.9,0.6,1.2,0.8c19.3,11.8,46.8,6.5,60-11.9
			c7.3-10.1,12.7-21.1,12.7-34c-0.1-14.5-13.4-24.5-27.4-20.9c-9.3,2.4-16.1,8.4-21.5,16.1C239.7,228.9,232.3,245.9,225.4,263.4z
			 M145.6,340.6c-6.6-6.7-13.1-12.5-22.4-13.2c-6.6-0.5-11.9,3.6-13.6,9.7c-0.7,2.6,0,4.7,2.1,6.2c1.4,1,3.2,1.8,4.9,2.1
			C126.5,347.3,135.7,344.6,145.6,340.6z"/>
		<path fill="#ECDFCD" d="M529.1,298.9c1.6,0,2.8,0,4.8,0c-2.5,81.9-35.5,147.8-102,195.8c-75,54.1-177.1,59.3-257.1,12.1
			C96.1,460.5,57.2,389.9,53.3,299c1.4-0.1,2-0.2,2.7-0.2c0.7,0,1.4,0.1,2.1,0.1c1.6,71.7,28.4,131.8,82.7,178.7
			c44.4,38.4,96.7,56.9,155.4,56.5c41.6-0.3,80.5-11.1,116.4-32.2c36-21.2,64.5-49.9,85.3-86.1C518.8,379.7,528.9,340.7,529.1,298.9
			z"/>
		<path fill="#ECE1CE" d="M158,127c-5.7-8.1-11.2-15.9-16.9-24c4.1-2.9,8-5.8,12.1-8.3c5.2-3.1,10.5-1.2,11.6,4
			c0.3,1.6-0.2,3.3-0.4,5c0.8,0,1.8-0.2,2.9-0.1c4.8,0.3,8.2,5.7,6.2,10.1c-0.8,1.8-2.2,3.6-3.8,4.8C166,121.5,162,124.2,158,127z
			 M154.6,113.6c1.8,2.5,3.3,4.7,5,7c2.6-1.9,5.2-3.6,7.5-5.6c1.8-1.5,2.8-3.5,1.2-5.7c-1.6-2.2-3.7-2.1-5.8-0.9
			C159.8,110,157.3,111.8,154.6,113.6z M152.2,110.2c2.6-1.9,5.1-3.5,7.3-5.5c1.6-1.4,1.9-3.3,0.6-5.1c-1.3-1.8-3.1-1.9-4.8-0.9
			c-2.6,1.5-5,3.3-7.6,5.1C149.2,106.1,150.6,108,152.2,110.2z"/>
		<path fill="#ECE0CE" d="M113.5,148.8c5.6-2.4,11-0.3,11.6,4.9c0.3,2.4-1.1,5.1-2,7.6c-0.3,0.9-1.1,1.6-1.7,2.4
			c-2.3,3-4.7,6-7.1,9.1c-7.7-6-15.3-11.9-23.2-18.1c3.3-4.1,6.3-8.3,9.8-12c4.4-4.5,10.8-3.1,12.3,2.4
			C113.5,146.4,113.5,147.7,113.5,148.8c-0.1,0-0.2,0-0.4,0c0,0.1,0,0.2,0,0.3C113.3,149,113.4,148.9,113.5,148.8z M113.9,166.4
			c1.9-2.6,3.9-4.9,5.5-7.5c1.5-2.4,1.2-4.8-0.6-6c-2.3-1.6-4.2-0.6-5.8,1.1c-2.1,2.2-3.8,4.7-5.9,7.2
			C109.5,162.9,111.6,164.6,113.9,166.4z M103.8,158.5c1.8-2.4,3.6-4.4,5.1-6.7c1.3-1.9,1.5-3.9-0.4-5.6c-1.7-1.4-3.8-1.1-5.7,1
			c-1.8,2-3.3,4.2-5.1,6.5C99.7,155.3,101.6,156.8,103.8,158.5z"/>
		<path fill="#ECE0CD" d="M255.1,83.6c-8.6,0-15.1-6.4-15.1-14.8c0-8.4,7.1-15.1,16-15c8.4,0.1,15,6.5,15.1,14.7
			C271.1,76.9,264,83.6,255.1,83.6z M265.8,68.7c0-5.8-4.5-10.2-10.4-10.2c-5.9,0-10.6,4.6-10.5,10.4c0,5.6,4.7,10.3,10.4,10.3
			C261.2,79.3,265.9,74.5,265.8,68.7z"/>
		<path fill="#ECDFCD" d="M330.1,70.5c-0.4,2.8-0.8,5.3-1.2,8c5.4,0.9,10.6,1.8,16.1,2.7c-0.2,1.4-0.4,2.8-0.6,4.4
			c-7.1-1.2-14-2.3-21.1-3.5c1.6-9.7,3.2-19.2,4.8-28.9c6.9,1.2,13.7,2.3,20.6,3.4c-0.2,1.5-0.4,2.8-0.7,4.3
			c-5.3-0.8-10.4-1.7-15.7-2.5c-0.4,2.7-0.9,5.1-1.3,7.7c4.7,0.8,9.3,1.6,14.1,2.4c-0.3,1.5-0.5,2.8-0.7,4.3
			C339.6,72.1,335.1,71.3,330.1,70.5z"/>
		<path fill="#ECE0CD" d="M522.9,243.8c0.9,4.8,1.8,9.3,2.7,14c-1.4,0.3-2.7,0.5-4.2,0.9c-0.5-2.5-1-4.7-1.4-7
			c-0.4-2.2-0.8-4.4-1.3-7c-2.6,0.5-5.1,0.9-7.9,1.4c1,5.4,2,10.6,3.1,16.2c-1.4,0.3-2.7,0.5-4.3,0.9c-1.4-7-2.7-13.8-4.1-21
			c9.6-1.9,19-3.7,28.7-5.6c1.3,6.9,2.7,13.6,4,20.5c-1.5,0.3-2.8,0.6-4.3,0.9c-1.1-5.3-2.1-10.5-3.1-15.7
			C528,242.8,525.7,243.3,522.9,243.8z"/>
		<path fill="#ECDFCD" d="M403.9,102.7c-2,1.4-3.9,2.8-5.8,4.1c-1.4-0.8-2.7-1.6-4.4-2.6c8.8-6.2,17.4-12.3,26-18.4
			c0.3,0.1,0.6,0.3,1,0.4c2.9,1,3.6,2.9,3.1,6c-1.4,8.6-2.3,17.4-3.4,26c-0.1,0.5-0.3,1-0.5,1.6c-0.9-0.5-1.6-1.1-2.4-1.4
			c-1.7-0.7-1.9-1.7-1.6-3.4c0.9-4.8,0.8-4.8-3.3-7.3C409.6,106.2,406.8,104.5,403.9,102.7z M417.2,105.6c0.6-4.6,1.2-8.9,1.9-14
			c-4.1,3-7.6,5.5-11.4,8.3C410.9,101.8,413.8,103.6,417.2,105.6z"/>
		<path fill="#ECE0CE" d="M487.1,196.5c-5.1-4.2-0.3-6.8,1.3-9.9c-2.3-3.8-4.5-7.6-6.9-11.3c-0.4-0.6-1.4-0.8-2.1-1
			c-0.6-0.1-1.2,0.1-1.9,0.2c-4.3,0.6-4.3,0.6-6.2-3.9c10-1.3,19.9-2.5,29.8-3.9c1.9-0.3,2.5,0.8,2.9,2c0.4,1,0.9,2.6,0.4,3.2
			c-5.5,8.1-11.2,16.1-16.9,24.2C487.4,196.3,487.2,196.4,487.1,196.5z M499.5,171.2c-5,0.7-9.4,1.4-14,2.1c2,3.3,3.8,6.3,5.8,9.4
			C494,178.8,496.6,175.3,499.5,171.2z"/>
		<path fill="#EDE1CF" d="M95.6,204.8c-1,4.8-1,4.9-5.4,4.9c-2.4,0-3.7,0.7-4.4,3.1c-0.8,3-2,6-3.3,8.8c-0.7,1.6-0.5,2.7,0.9,3.7
			c0.1,0.1,0.3,0.2,0.4,0.4c3.3,3.1,3.3,3.1,1.4,7.6c-0.6-0.5-1.1-0.8-1.6-1.3c-6.5-6.4-13-12.8-19.5-19.2c-1.1-1.1-1.8-2-1-3.7
			c0.7-1.6,1.2-2.8,3.5-2.9c8.9-0.3,17.9-0.9,26.8-1.4C93.9,204.7,94.7,204.8,95.6,204.8z M78,220.8c1.5-3.9,2.7-7.2,4.1-10.8
			c-4.8,0.2-9.1,0.4-13.2,0.6C71.9,213.9,74.8,217.2,78,220.8z"/>
		<path fill="#EBDECC" d="M391.6,75.8c-1.3,0.8-2.4,1.4-3.6,2.1c-1.9-3.3-4.3-6.4-8.3-6.6c-2.4-0.2-5.1,0.2-7.3,1.3
			c-4.4,2.2-6,7.9-4.2,12.4c2.2,5.6,7.3,7.6,14.9,5.8c0.5,1.2,1,2.4,1.5,3.6c-7.2,4.1-17,0.5-20.5-6.5c-3.8-7.5-0.7-16.8,6.9-20.2
			C378.7,64.2,388.5,68,391.6,75.8z"/>
		<path fill="#ECDFCD" d="M467.6,153.1c0,1.4,0,2.7,0,3.9c-8,0.8-15.5-6.1-16-14.6c-0.5-7.9,6.4-15.2,14.4-15.3
			c8.6-0.1,16,7.2,15.8,15.7c-1.3,0.2-2.6,0.4-4.1,0.6c-0.5-4-1.4-7.9-5.3-9.8c-2.2-1.1-4.8-1.7-7.2-1.5c-4.6,0.2-8.3,4.6-8.6,9.4
			C456.3,147.4,459.9,151.3,467.6,153.1z"/>
		<path fill="#ECDFCD" d="M528.4,217.8c-1.5,0.6-2.7,1-4.1,1.6c-1.8-4.6-3.5-9-5.3-13.7c-2.7,1-5.2,2-7.8,3
			c1.6,4.2,3.1,8.2,4.7,12.4c-1.4,0.6-2.5,1-4,1.6c-1.6-4.1-3.2-8.1-4.9-12.4c-3.8,1.4-7.4,2.8-11.2,4.2c-0.6-1.5-1.1-2.9-1.8-4.6
			c9.1-3.5,18.1-7,27.3-10.5C523.7,205.6,526,211.5,528.4,217.8z"/>
		<path fill="#EBDCCA" d="M294.2,55.5c-3.1,0-6,0-9,0c0-1.5,0-2.8,0-4.3c7.7,0,15.3,0,23.1,0c0,1.3,0,2.6,0,4.2c-2.9,0-5.9,0-9.1,0
			c0,8.4,0,16.5,0,24.8c-1.8,0-3.3,0-5,0C294.2,72.1,294.2,63.9,294.2,55.5z"/>
		<path fill="#ECDFCD" d="M49.3,255.6c0.3-1.7,0.6-3.1,1-4.8c8,1.7,15.9,3.4,24.2,5.2c0.9-4.1,1.8-8.1,2.8-12.3
			c1.4,0.3,2.7,0.5,4.3,0.9c-1.2,5.8-2.4,11.4-3.7,17.2C68.2,259.7,58.8,257.7,49.3,255.6z"/>
		<path fill="#ECDFCD" d="M204.9,93.1c0.8,1.4,1.4,2.5,2.2,3.8c-5.1,2.9-10,5.7-15.3,8.7c-4.8-8.5-9.5-16.9-14.4-25.5
			c1.4-0.8,2.7-1.6,4.3-2.4c4.1,7.2,8.1,14.3,12.2,21.6C197.7,97.2,201.2,95.2,204.9,93.1z"/>
		<path fill="#ECDFCD" d="M213.5,63.7c1.5-0.5,2.9-0.9,4.7-1.5c2.8,9.4,5.6,18.7,8.5,28.1c-1.7,0.5-3.1,0.9-4.7,1.4
			C219.1,82.3,216.3,73.1,213.5,63.7z"/>
		<path fill="#ECDFCD" d="M144,139.5c-1.3,1.2-2.4,2.2-3.6,3.3c-6.6-7.1-13.2-14.2-19.9-21.4c1.2-1.1,2.3-2.2,3.6-3.4
			C130.7,125.2,137.3,132.3,144,139.5z"/>
		<path fill="#ECDBCA" d="M538.9,243.9c6.7,2.6,6.7,2.6,5.5,7.9C541.7,249.8,538.6,248.2,538.9,243.9z"/>
		<path fill="#69151C" d="M225.4,263.4c6.9-17.5,14.2-34.5,25-49.9c5.4-7.6,12.2-13.6,21.5-16.1c14-3.7,27.3,6.4,27.4,20.9
			c0.1,12.9-5.4,23.8-12.7,34c-13.2,18.4-40.7,23.7-60,11.9C226.3,264,226,263.8,225.4,263.4z"/>
		<path fill="#69181E" d="M145.6,340.6c-9.8,4-19.1,6.8-29.1,4.8c-1.7-0.3-3.4-1.1-4.9-2.1c-2.1-1.5-2.8-3.6-2.1-6.2
			c1.7-6.1,7-10.2,13.6-9.7C132.5,328.1,139,333.8,145.6,340.6z"/>
		<path fill="#6A1C20" d="M154.6,113.6c2.8-1.9,5.3-3.7,7.9-5.2c2-1.2,4.2-1.3,5.8,0.9c1.6,2.2,0.6,4.2-1.2,5.7
			c-2.3,2-4.9,3.7-7.5,5.6C157.9,118.3,156.3,116.1,154.6,113.6z"/>
		<path fill="#6A1B20" d="M152.2,110.2c-1.5-2.2-2.9-4.1-4.5-6.4c2.6-1.7,5-3.5,7.6-5.1c1.7-1,3.5-0.9,4.8,0.9
			c1.3,1.8,1,3.7-0.6,5.1C157.2,106.6,154.7,108.3,152.2,110.2z"/>
		<path fill="#6A1C20" d="M113.9,166.4c-2.3-1.8-4.4-3.4-6.7-5.2c2-2.5,3.8-5,5.9-7.2c1.5-1.7,3.5-2.7,5.8-1.1
			c1.8,1.3,2.2,3.7,0.6,6C117.8,161.4,115.8,163.8,113.9,166.4z"/>
		<path fill="#6A1C20" d="M103.8,158.5c-2.2-1.7-4.1-3.2-6.1-4.8c1.8-2.3,3.4-4.4,5.1-6.5c1.8-2.1,4-2.5,5.7-1
			c2,1.7,1.7,3.7,0.4,5.6C107.4,154,105.6,156.1,103.8,158.5z"/>
		<path fill="#69141C" d="M113.5,148.8c-0.1,0.1-0.3,0.2-0.4,0.2c0-0.1,0-0.2,0-0.3C113.3,148.8,113.4,148.9,113.5,148.8
			C113.6,148.9,113.5,148.8,113.5,148.8z"/>
		<path fill="#69181E" d="M265.8,68.7c0,5.9-4.7,10.6-10.5,10.5c-5.7,0-10.4-4.7-10.4-10.3c0-5.8,4.6-10.4,10.5-10.4
			C261.3,58.4,265.8,62.9,265.8,68.7z"/>
		<path fill="#6B1F22" d="M417.2,105.6c-3.4-2-6.3-3.8-9.5-5.7c3.8-2.7,7.3-5.3,11.4-8.3C418.4,96.6,417.8,100.9,417.2,105.6z"/>
		<path fill="#6A1E22" d="M499.5,171.2c-2.9,4.1-5.5,7.7-8.3,11.5c-1.9-3.1-3.7-6.1-5.8-9.4C490.2,172.6,494.5,171.9,499.5,171.2z"
			/>
		<path fill="#6C1F23" d="M78,220.8c-3.3-3.7-6.2-6.9-9.1-10.2c4-0.2,8.4-0.4,13.2-0.6C80.8,213.6,79.5,216.9,78,220.8z"/>
	</g>
</g>
</svg>
